<svg xmlns="http://www.w3.org/2000/svg" width="56.668" height="57.753" viewBox="0 0 56.668 57.753"><defs><style>.a{fill:#1eb7fa;}</style></defs><g transform="translate(-4.809 0)"><g transform="translate(4.809 0)"><path class="a" d="M61.277,3.929a.85.85,0,0,0-.578-.3L48.13,2.556,47.9.745a.851.851,0,0,0-.95-.738L35.293,1.473a.846.846,0,0,0-.142-.025L19.125.079a.858.858,0,0,0-.92.775l-.239,2.8L5.553,5.212a.859.859,0,0,0-.738.95l6.336,50.4a2.34,2.34,0,0,0,.073.673.858.858,0,0,0,.784.519H53.734a.85.85,0,0,0,.85-.85V55.8l1.647.141a.859.859,0,0,0,.92-.775L61.474,4.55A.85.85,0,0,0,61.277,3.929ZM11.158,42.979,6.609,6.793l4.549-.572ZM19.828,1.846l7.442.636-7.578.953ZM46.321,1.8l.435,3.456H18.832Zm9.208,52.368-.944-.081V29.237a.85.85,0,0,0-1.7,0V56.052H12.859V6.957H52.884V25.269a.85.85,0,0,0,1.7,0V6.107a.85.85,0,0,0-.85-.85H48.47l-.123-.975,11.36.97Z" transform="translate(-4.809 0)"/></g><g transform="translate(33.835 9.792)"><path class="a" d="M277.5,86.806h-4.535a.85.85,0,0,0-.708.379l-1.925,2.887a12.573,12.573,0,0,0-7.345-2.359.85.85,0,0,0-.85.85v11.792a.85.85,0,0,0,.85.85h11.792a.85.85,0,0,0,.85-.85,12.609,12.609,0,0,0-3.977-9.2l1.768-2.652h4.08a.85.85,0,1,0,0-1.7Zm-3.6,12.7H263.838V89.446a10.877,10.877,0,0,1,5.55,2.042l-.759,1.138a.85.85,0,1,0,1.415.943l.649-.974A10.913,10.913,0,0,1,273.9,99.5Z" transform="translate(-262.137 -86.806)"/></g><g transform="translate(18.415 14.327)"><path class="a" d="M156.214,150.6h-7.692l-1.355-2.169a12.6,12.6,0,0,0,3.549-8.773.85.85,0,0,0-.85-.85H138.923V127.863a.85.85,0,0,0-.85-.85,12.642,12.642,0,1,0,7.813,22.575l1.444,2.31a.851.851,0,0,0,.721.4h8.164a.85.85,0,0,0,0-1.7Zm-11.978-6.857a.85.85,0,0,0-1.442.9l2.184,3.495a10.94,10.94,0,1,1-7.756-19.389v10.909a.85.85,0,0,0,.85.85h10.909a10.9,10.9,0,0,1-2.748,6.43Z" transform="translate(-125.43 -127.013)"/></g><g transform="translate(15.694 42.446)"><path class="a" d="M109.413,376.3h-7.257a.85.85,0,1,0,0,1.7h7.257a.85.85,0,1,0,0-1.7Z" transform="translate(-101.306 -376.3)"/></g><g transform="translate(26.579 42.446)"><path class="a" d="M205.912,376.3h-7.257a.85.85,0,1,0,0,1.7h7.257a.85.85,0,1,0,0-1.7Z" transform="translate(-197.805 -376.3)"/></g><g transform="translate(15.694 46.982)"><path class="a" d="M113.948,416.508H102.156a.85.85,0,1,0,0,1.7h11.792a.85.85,0,0,0,0-1.7Z" transform="translate(-101.306 -416.508)"/></g><g transform="translate(31.114 46.982)"><path class="a" d="M241.584,416.508h-2.721a.85.85,0,1,0,0,1.7h2.721a.85.85,0,1,0,0-1.7Z" transform="translate(-238.012 -416.508)"/></g><g transform="translate(15.694 51.517)"><path class="a" d="M105.785,456.715h-3.628a.85.85,0,1,0,0,1.7h3.628a.85.85,0,0,0,0-1.7Z" transform="translate(-101.306 -456.715)"/></g><g transform="translate(22.95 51.517)"><path class="a" d="M177.374,456.715H166.489a.85.85,0,1,0,0,1.7h10.885a.85.85,0,0,0,0-1.7Z" transform="translate(-165.639 -456.715)"/></g></g></svg>