<svg xmlns="http://www.w3.org/2000/svg" width="71.042" height="69.222" viewBox="0 0 71.042 69.222"><defs><style>.a{fill:#1eb7fa;}</style></defs><g transform="translate(0 -6.558)"><path class="a" d="M127.24,90a3.473,3.473,0,1,0-2.772-1.386l-5.7,7.965a3.459,3.459,0,0,0-3.441.758l-3.8-2.156a3.469,3.469,0,1,0-6.782,0l-3.8,2.156a3.464,3.464,0,1,0,1.03,1.809l3.8-2.156a3.46,3.46,0,0,0,4.722,0l3.8,2.156a3.469,3.469,0,1,0,6.163-1.354l5.7-7.965A3.458,3.458,0,0,0,127.24,90Zm0-4.856a1.388,1.388,0,1,1-1.388,1.388A1.389,1.389,0,0,1,127.24,85.142ZM98.586,101.261a1.388,1.388,0,1,1,1.388-1.388A1.389,1.389,0,0,1,98.586,101.261Zm9.551-5.423a1.388,1.388,0,1,1,1.388-1.388A1.389,1.389,0,0,1,108.138,95.838Zm9.551,5.423a1.388,1.388,0,1,1,1.388-1.388A1.389,1.389,0,0,1,117.689,101.261Z" transform="translate(-81.92 -65.888)"/><path class="a" d="M58.109,86.855H2.944a.863.863,0,0,1-.862-.862V43.06a.863.863,0,0,1,.862-.862H7.849a1.041,1.041,0,1,0,0-2.081H2.944A2.947,2.947,0,0,0,0,43.06V85.993a2.947,2.947,0,0,0,2.944,2.944h7.175v2.29a2.369,2.369,0,0,0,2.366,2.366H22.9L18,103.166a1.041,1.041,0,1,0,1.852.949l5.39-10.522H36.746l5.39,10.522a1.041,1.041,0,1,0,1.852-.949l-4.9-9.574H49.5a2.369,2.369,0,0,0,2.366-2.366v-2.29h6.242a1.041,1.041,0,1,0,0-2.081Zm-8.323,4.372a.285.285,0,0,1-.285.285H12.485a.285.285,0,0,1-.285-.285v-2.29H49.786Z" transform="translate(0 -28.902)"/><path class="a" d="M80.112,13.3h47.031a.863.863,0,0,1,.862.862v9.895a1.041,1.041,0,0,0,2.081,0V14.158a2.947,2.947,0,0,0-2.944-2.944H104.869V9.169a2.614,2.614,0,0,0-2.611-2.611h-6.33a2.614,2.614,0,0,0-2.611,2.611v2.045H80.112a1.041,1.041,0,1,0,0,2.081ZM95.4,9.169a.53.53,0,0,1,.53-.529h6.33a.53.53,0,0,1,.53.529v2.045H95.4V9.169Z" transform="translate(-68.1 0)"/><path class="a" d="M98.443,267.576a1.041,1.041,0,0,0-1.041,1.041v9.2a1.041,1.041,0,0,0,1.041,1.041h4.222a1.041,1.041,0,0,0,1.041-1.041v-9.2a1.041,1.041,0,0,0-1.041-1.041Zm3.181,9.2H99.483v-7.114h2.141Z" transform="translate(-83.887 -224.801)"/><path class="a" d="M167.278,229.248a1.041,1.041,0,0,0-1.041,1.041V244.8a1.041,1.041,0,0,0,1.041,1.041H171.5a1.041,1.041,0,0,0,1.041-1.041V230.289a1.041,1.041,0,0,0-1.041-1.041Zm3.181,14.514h-2.141V231.329h2.141Z" transform="translate(-143.171 -191.791)"/><path class="a" d="M236.114,267.576a1.041,1.041,0,0,0-1.041,1.041v9.2a1.041,1.041,0,0,0,1.041,1.041h4.222a1.041,1.041,0,0,0,1.041-1.041v-9.2a1.041,1.041,0,0,0-1.041-1.041Zm3.181,9.2h-2.141v-7.114h2.141Z" transform="translate(-202.456 -224.801)"/><path class="a" d="M304.95,311.832a1.041,1.041,0,0,0-1.041,1.041v3.055a1.041,1.041,0,0,0,1.041,1.041h4.222a1.041,1.041,0,0,0,0-2.081H305.99v-2.014A1.041,1.041,0,0,0,304.95,311.832Z" transform="translate(-261.741 -262.916)"/><path class="a" d="M325.038,177.712l-5.97-10.341a13.608,13.608,0,1,0-13.456,3.84,13.676,13.676,0,0,0,3.542.469,13.431,13.431,0,0,0,3.063-.354l5.969,10.341a3.956,3.956,0,1,0,6.852-3.956ZM306.15,169.2a11.521,11.521,0,1,1,8.742-1.151A11.445,11.445,0,0,1,306.15,169.2Zm16.4,12.112a1.877,1.877,0,0,1-2.561-.686l-5.743-9.949a13.659,13.659,0,0,0,3.245-1.876l5.744,9.95a1.873,1.873,0,0,1-.686,2.561Z" transform="translate(-254.527 -118.78)"/><path class="a" d="M341.62,184.058a9.848,9.848,0,0,0-.493-7.134,1.041,1.041,0,1,0-1.883.887,7.795,7.795,0,1,1-2.35-2.9,1.041,1.041,0,1,0,1.256-1.66,9.882,9.882,0,1,0,3.469,10.811Z" transform="translate(-277.58 -141.833)"/></g></svg>