<svg xmlns="http://www.w3.org/2000/svg" width="105.161" height="84.311" viewBox="0 0 105.161 84.311"><defs><style>.a{fill:#1eb7fa;}</style></defs><g transform="translate(0 -50.758)"><g transform="translate(0 50.758)"><g transform="translate(0 0)"><path class="a" d="M76.466,50.758H5.922A5.928,5.928,0,0,0,0,56.679V99a5.928,5.928,0,0,0,5.922,5.922H10.5v15.756a2.481,2.481,0,0,0,4.235,1.754l17.51-17.51h3.513a2.481,2.481,0,0,0,0-4.962s-4.66,0-4.709.008a2.471,2.471,0,0,0-1.586.718l-14,14s0-12.4-.012-12.468a2.48,2.48,0,0,0-2.47-2.26H5.922a.961.961,0,0,1-.96-.96V56.679a.961.961,0,0,1,.96-.96H76.466a.961.961,0,0,1,.96.96V72.917a2.481,2.481,0,1,0,4.961,0V56.679A5.928,5.928,0,0,0,76.466,50.758Z" transform="translate(0 -50.758)"/></g></g><g transform="translate(43.938 81.102)"><g transform="translate(0 0)"><path class="a" d="M269.224,198.492h-49.38a5.928,5.928,0,0,0-5.922,5.922v28.872a5.928,5.928,0,0,0,5.922,5.922h30.914l12.525,12.525a2.481,2.481,0,0,0,4.235-1.754V239.207h1.7a5.928,5.928,0,0,0,5.922-5.922V204.413A5.928,5.928,0,0,0,269.224,198.492Zm.96,34.794a.961.961,0,0,1-.96.96h-4.185a2.479,2.479,0,0,0-2.471,2.29c-.006.054-.01,7.454-.01,7.454l-9.007-9.007-.029-.028c-.035-.034-.069-.064-.1-.091a2.469,2.469,0,0,0-1.633-.617H219.845a.961.961,0,0,1-.96-.96V204.413a.961.961,0,0,1,.96-.96h49.38a.961.961,0,0,1,.96.96Z" transform="translate(-213.923 -198.492)"/></g></g><g transform="translate(72.069 98.978)"><g transform="translate(0 0)"><path class="a" d="M353.367,285.53a2.481,2.481,0,1,0,2.481,2.481A2.482,2.482,0,0,0,353.367,285.53Z" transform="translate(-350.886 -285.53)"/></g></g><g transform="translate(16.138 67.159)"><g transform="translate(0 0)"><path class="a" d="M126.2,130.611H81.053a2.481,2.481,0,1,0,0,4.961H126.2a2.481,2.481,0,0,0,0-4.961Z" transform="translate(-78.572 -130.611)"/></g></g><g transform="translate(16.138 83.561)"><path class="a" d="M98.188,210.465H81.053a2.481,2.481,0,0,0,0,4.961H98.188a2.481,2.481,0,0,0,0-4.961Z" transform="translate(-78.572 -210.465)"/></g><g transform="translate(60.541 98.978)"><g transform="translate(0 0)"><path class="a" d="M297.24,285.53a2.481,2.481,0,1,0,2.481,2.481A2.482,2.482,0,0,0,297.24,285.53Z" transform="translate(-294.759 -285.53)"/></g></g><g transform="translate(83.595 98.978)"><g transform="translate(0 0)"><path class="a" d="M409.482,285.53a2.481,2.481,0,1,0,2.481,2.481A2.482,2.482,0,0,0,409.482,285.53Z" transform="translate(-407.001 -285.53)"/></g></g></g></svg>