<svg xmlns="http://www.w3.org/2000/svg" width="56.229" height="55.669" viewBox="0 0 56.229 55.669"><defs><style>.a{fill:#1eb7fa;}</style></defs><path class="a" d="M373.1,310.015h-.4v-1.01a4.812,4.812,0,0,0,2.078-3.958v-4.58a2.916,2.916,0,0,0-2.913-2.913h-3.8a2.917,2.917,0,0,0-2.913,2.913v4.58a4.812,4.812,0,0,0,2.078,3.958v1.01h-.4a5.125,5.125,0,0,0-5.118,5.12.845.845,0,1,0,1.69,0,3.433,3.433,0,0,1,3.428-3.429h.543a2.733,2.733,0,0,0,5.182,0h.543a3.432,3.432,0,0,1,3.428,3.429v3.52a.2.2,0,0,1-.2.2h-2.06V316.6a.845.845,0,0,0-1.691,0v2.256H367.41V316.6a.845.845,0,0,0-1.691,0v2.256h-2.111a.2.2,0,0,1-.2-.2.845.845,0,1,0-1.69,0,1.892,1.892,0,0,0,1.89,1.89h12.725a1.892,1.892,0,0,0,1.89-1.89v-3.52A5.125,5.125,0,0,0,373.1,310.015Zm-6.258-9.547a1.224,1.224,0,0,1,1.223-1.223h3.8a1.224,1.224,0,0,1,1.223,1.223v1.063a2.891,2.891,0,0,0-1-.26.845.845,0,0,0-1.689-.009H368.07a2.9,2.9,0,0,0-1.223.269Zm0,3.706a1.224,1.224,0,0,1,1.223-1.223h3.8a1.224,1.224,0,0,1,1.223,1.223v.873a3.124,3.124,0,0,1-6.247,0Zm3.124,7.7a1.049,1.049,0,0,1-1.045-1.03c0-.01,0-.021,0-.031v-1.072a4.779,4.779,0,0,0,2.092,0v1.072c0,.01,0,.021,0,.031A1.049,1.049,0,0,1,369.971,311.878Zm0,0" transform="translate(-321.994 -264.876)"/><path class="a" d="M377.378,20.256a.845.845,0,0,0-.845.845.2.2,0,0,1-.2.2h-2.06V19.044a.845.845,0,1,0-1.69,0V21.3h-5.174V19.044a.845.845,0,1,0-1.69,0V21.3h-2.111a.2.2,0,0,1-.2-.2V17.58a3.432,3.432,0,0,1,3.428-3.428h.543a2.734,2.734,0,0,0,5.182,0h.543a3.432,3.432,0,0,1,3.428,3.428.845.845,0,0,0,1.69,0,5.124,5.124,0,0,0-5.118-5.119h-.4V11.45a4.811,4.811,0,0,0,2.078-3.957V2.913A2.916,2.916,0,0,0,371.872,0h-3.8a2.917,2.917,0,0,0-2.913,2.913v4.58a4.81,4.81,0,0,0,2.078,3.957v1.011h-.4a5.124,5.124,0,0,0-5.118,5.118V21.1a1.891,1.891,0,0,0,1.89,1.888h12.725a1.891,1.891,0,0,0,1.89-1.888A.845.845,0,0,0,377.378,20.256ZM366.847,2.913A1.224,1.224,0,0,1,368.07,1.69h3.8a1.224,1.224,0,0,1,1.223,1.223V3.976a2.891,2.891,0,0,0-1-.26.845.845,0,0,0-1.689-.009H368.07a2.9,2.9,0,0,0-1.223.269Zm0,3.707A1.224,1.224,0,0,1,368.07,5.4h3.8a1.224,1.224,0,0,1,1.223,1.223v.873a3.124,3.124,0,0,1-6.247,0Zm3.124,5.687a4.806,4.806,0,0,0,1.046-.115v1.072c0,.01,0,.021,0,.031a1.045,1.045,0,0,1-2.09,0c0-.011,0-.021,0-.031V12.191A4.829,4.829,0,0,0,369.971,12.307Zm0,0" transform="translate(-321.994)"/><path class="a" d="M30.881,27.891a3.514,3.514,0,0,0,3.51-3.51V20.636a2.75,2.75,0,0,1,2.747-2.747.845.845,0,1,0,0-1.69A4.442,4.442,0,0,0,32.7,20.636v3.745A1.822,1.822,0,0,1,30.881,26.2h-.905V4.013A4.017,4.017,0,0,0,25.963,0H4.013A4.017,4.017,0,0,0,0,4.013V51.656a4.017,4.017,0,0,0,4.013,4.013h21.95a4.017,4.017,0,0,0,4.013-4.013V31.835h.905a1.822,1.822,0,0,1,1.819,1.82V37.4a4.442,4.442,0,0,0,4.437,4.437.845.845,0,0,0,0-1.69A2.75,2.75,0,0,1,34.391,37.4V33.655a3.514,3.514,0,0,0-3.51-3.51h-.905V27.891ZM16.3,1.69l-.41,1.844a.663.663,0,0,1-.651.523h-.5a.663.663,0,0,1-.652-.523l-.41-1.844ZM28.285,51.656a2.325,2.325,0,0,1-2.323,2.322H4.013A2.325,2.325,0,0,1,1.69,51.656V4.013A2.325,2.325,0,0,1,4.013,1.69h7.93L12.435,3.9a2.343,2.343,0,0,0,2.3,1.846h.5a2.344,2.344,0,0,0,2.3-1.846l.491-2.211h7.93a2.325,2.325,0,0,1,2.323,2.323Zm0,0"/><path class="a" d="M53.264,154.8l.023.009a9.825,9.825,0,0,0,7.507-.024l.008,0a9.805,9.805,0,0,0,4.311-3.523l0,0h0a9.808,9.808,0,0,0-.49-11.691.845.845,0,0,0-1.312,1.066,8.13,8.13,0,0,1,1.548,7.162,5.126,5.126,0,0,0-4.718-3.133H59.93v-1.045a4.809,4.809,0,0,0,2.03-3.924v-4.58a2.916,2.916,0,0,0-2.913-2.913h-3.8a2.916,2.916,0,0,0-2.913,2.913v4.58a4.813,4.813,0,0,0,2.125,3.991v.977h-.579a5.126,5.126,0,0,0-4.718,3.135,8.132,8.132,0,0,1-.263-2.054,8.024,8.024,0,0,1,1.776-5.066.845.845,0,1,0-1.32-1.057A9.806,9.806,0,0,0,53.264,154.8Zm.758-19.691a1.224,1.224,0,0,1,1.223-1.223h3.8a1.224,1.224,0,0,1,1.223,1.223v1.063a2.893,2.893,0,0,0-1.136-.267.844.844,0,0,0-1.688,0h-2.2a2.9,2.9,0,0,0-1.223.269Zm0,3.707a1.224,1.224,0,0,1,1.223-1.223h3.8a1.224,1.224,0,0,1,1.223,1.223v.873a3.124,3.124,0,1,1-6.247,0v-.873Zm3.124,5.687a4.807,4.807,0,0,0,1.093-.127v1.083c0,.01,0,.021,0,.031a1.045,1.045,0,0,1-2.09,0c0-.01,0-.021,0-.031V144.4A4.822,4.822,0,0,0,57.146,144.5Zm-3.268,1.845H54.6a2.734,2.734,0,0,0,5.182,0h.36a3.432,3.432,0,0,1,3.428,3.428v.734a8.127,8.127,0,0,1-2.259,2.107V151.24a.845.845,0,0,0-1.69,0v2.179a8.119,8.119,0,0,1-5.174.018v-2.2a.845.845,0,0,0-1.691,0v1.409a8.114,8.114,0,0,1-2.281-2.1l-.006-.007-.023-.032v-.735A3.432,3.432,0,0,1,53.878,146.347Zm0,0" transform="translate(-42.023 -117.677)"/><path class="a" d="M39.124,409.93a3.155,3.155,0,1,0,3.155,3.155A3.159,3.159,0,0,0,39.124,409.93Zm0,4.62a1.465,1.465,0,1,1,1.465-1.465A1.467,1.467,0,0,1,39.124,414.55Zm0,0" transform="translate(-32.019 -364.91)"/><path class="a" d="M111.976,409.93a3.155,3.155,0,1,0,3.155,3.155A3.159,3.159,0,0,0,111.976,409.93Zm0,4.62a1.465,1.465,0,1,1,1.465-1.465A1.467,1.467,0,0,1,111.976,414.55Zm0,0" transform="translate(-96.869 -364.91)"/><path class="a" d="M184.831,409.93a3.155,3.155,0,1,0,3.155,3.155A3.159,3.159,0,0,0,184.831,409.93Zm0,4.62a1.465,1.465,0,1,1,1.465-1.465A1.467,1.467,0,0,1,184.831,414.55Zm0,0" transform="translate(-161.724 -364.91)"/></svg>