<svg xmlns="http://www.w3.org/2000/svg" width="108" height="108" viewBox="0 0 108 108"><defs><style>.a{fill:#1eb7fa;}</style></defs><path class="a" d="M204.194,28.106l12.824-10.686h16.789V0H192V17.419h12.194Zm-8.71-14.17V3.484h34.839V13.935H215.757l-8.079,6.733V13.935Zm0,0" transform="translate(-150.194)"/><path class="a" d="M224,32h3.484v3.484H224Zm0,0" transform="translate(-175.226 -25.032)"/><path class="a" d="M256,32h13.935v3.484H256Zm0,0" transform="translate(-200.258 -25.032)"/><path class="a" d="M336,32h3.484v3.484H336Zm0,0" transform="translate(-262.839 -25.032)"/><path class="a" d="M88.673,198.387l-1.409-14.1a12.2,12.2,0,0,0,10.284-12.028V149.613H90.581v-2.407a6.266,6.266,0,0,0-3.394-5.585,10.41,10.41,0,0,0,3.394-7.686v-3.484a10.452,10.452,0,1,0-20.9,0v3.484a10.46,10.46,0,0,0,6.886,9.812L67.214,153.1H57.446a6.986,6.986,0,0,0-5.015-6.243l-7.14-2.038V141.7a10.416,10.416,0,0,0,3.484-7.769v-3.484a10.452,10.452,0,0,0-20.9,0v3.484a10.421,10.421,0,0,0,3.484,7.769v3.113l-7.14,2.038a6.994,6.994,0,0,0-5.053,6.7v6.509H12.194v10.452h3.484v27.871H0v3.484H108v-3.484ZM73.161,170.516v-7.988L85.5,150.184a5.457,5.457,0,0,0,1.542-3.341,2.834,2.834,0,0,1,.05.362v21.568A5.233,5.233,0,0,1,81.871,174H67.935v-3.484Zm-5.226,13.935h8.876L78.2,198.387H67.935Zm12.376,0h3.467l1.393,13.935H81.705Zm10.269-15.677V153.1h3.484v19.161a8.72,8.72,0,0,1-8.71,8.71H67.935v-3.484H81.871A8.72,8.72,0,0,0,90.581,168.774ZM73.161,133.935v-3.484a6.968,6.968,0,0,1,13.935,0v3.484a6.968,6.968,0,1,1-13.935,0Zm-4.5,22.645,11.622-11.622a1.953,1.953,0,0,1,2.763,2.763L70.7,160.065H52.258a1.742,1.742,0,1,1,0-3.484Zm-37.3-26.129a6.968,6.968,0,0,1,13.935,0v3.484a6.968,6.968,0,1,1-13.935,0Zm6.968,13.935a10.4,10.4,0,0,0,3.484-.61v1.871a4.454,4.454,0,0,1-3.484,2.222,4.454,4.454,0,0,1-3.484-2.222v-1.871A10.4,10.4,0,0,0,38.323,144.387Zm-15.677,9.168a3.5,3.5,0,0,1,2.526-3.35l7.176-2.05a7.587,7.587,0,0,0,5.975,3.2,7.583,7.583,0,0,0,5.975-3.2l7.176,2.05a3.472,3.472,0,0,1,2.451,2.892H52.258a5.233,5.233,0,0,0-5.226,5.226,5.153,5.153,0,0,0,.321,1.742H22.645Zm-6.968,9.993h54v3.484h-54Zm3.484,13.936h5.226V174H19.161v-3.484h45.29V174H27.871v3.484H64.452v20.9H60.3l-3.484-6.968H26.794l-3.484,6.968H19.161Zm37.246,20.9h-29.2l1.742-3.484H54.665Zm0,0" transform="translate(0 -93.871)"/></svg>