<svg xmlns="http://www.w3.org/2000/svg" width="100.997" height="101" viewBox="0 0 100.997 101"><defs><style>.a{fill:#1eb7fa;}</style></defs><path class="a" d="M96.187,4.81a16.477,16.477,0,0,0-23.269,0L7,70.732c-.031.031-.049.069-.077.1s-.071.091-.106.139a1.778,1.778,0,0,0-.229.437c-.016.048-.04.09-.053.137-.005.018-.016.037-.022.055L.048,98.748a1.812,1.812,0,0,0-.04.369c0,.024-.007.046-.007.069a1.818,1.818,0,0,0,.119.607c.016.046.035.086.055.13a1.824,1.824,0,0,0,.358.541,1.84,1.84,0,0,0,.6.4,1.815,1.815,0,0,0,.693.137,1.838,1.838,0,0,0,.422-.049l27.146-6.462a1.32,1.32,0,0,0,.141-.055,1.688,1.688,0,0,0,.181-.071,1.8,1.8,0,0,0,.367-.225c.044-.035.09-.06.132-.1.015-.015.033-.022.048-.037L96.185,28.078A16.472,16.472,0,0,0,96.187,4.81ZM93.6,7.394A12.808,12.808,0,0,1,94.79,24.1L76.9,6.206A12.808,12.808,0,0,1,93.6,7.394ZM84.553,34.54l-18.1-18.1,2.585-2.585,18.1,18.1ZM9.069,91.928a1.826,1.826,0,0,0-2.585,0L5.1,93.311,9.769,73.7l8.084-.9-1.04,9.363a1.826,1.826,0,0,0,.018.2,1.868,1.868,0,0,0-.018.2c.007.06.038.11.051.168a1.857,1.857,0,0,0,.091.3,1.78,1.78,0,0,0,.174.331,1.731,1.731,0,0,0,.183.232,1.832,1.832,0,0,0,.287.245,1.857,1.857,0,0,0,.252.154,1.9,1.9,0,0,0,.378.121,1.913,1.913,0,0,0,.2.064,1.8,1.8,0,0,0,.2.011h.007a1.82,1.82,0,0,0,.2-.011l9.363-1.04-.9,8.084L7.685,95.9l1.384-1.384A1.829,1.829,0,0,0,9.069,91.928ZM32.01,81.912,72.918,41a1.828,1.828,0,1,0-2.585-2.585L29.426,79.327,20.7,80.3l.969-8.725L62.58,30.663A1.828,1.828,0,0,0,60,28.078L19.085,68.986l-5.819.647L63.871,19.028l18.1,18.1L31.363,87.73ZM89.723,29.371l-18.1-18.1,2.587-2.587,18.1,18.1Z"/></svg>