<svg xmlns="http://www.w3.org/2000/svg" width="47.259" height="35.965" viewBox="0 0 47.259 35.965"><defs><style>.a{fill:#1eb7fa;}</style></defs><g transform="translate(0 -57.75)"><g transform="translate(0 57.75)"><path class="a" d="M41.49,57.75H5.779A5.784,5.784,0,0,0,0,63.529V87.936a5.784,5.784,0,0,0,5.779,5.779h35.7a5.784,5.784,0,0,0,5.779-5.779v-24.4A5.778,5.778,0,0,0,41.49,57.75Zm3.139,30.186a3.142,3.142,0,0,1-3.139,3.139H5.779A3.142,3.142,0,0,1,2.64,87.936v-24.4A3.142,3.142,0,0,1,5.779,60.4h35.7a3.142,3.142,0,0,1,3.139,3.139v24.4Z" transform="translate(0 -57.75)"/><path class="a" d="M80.105,121.58l11.558-10.365a1.322,1.322,0,0,0-1.77-1.965L73.955,123.555l-3.11-2.777c-.01-.01-.02-.02-.02-.029a1.956,1.956,0,0,0-.215-.186L57.957,109.24a1.323,1.323,0,0,0-1.76,1.975l11.695,10.453-11.646,10.9a1.325,1.325,0,0,0-.059,1.868,1.351,1.351,0,0,0,.968.42,1.323,1.323,0,0,0,.9-.352l11.822-11.059,3.207,2.865a1.317,1.317,0,0,0,1.76-.01l3.3-2.953,11.754,11.167a1.324,1.324,0,0,0,1.868-.049,1.325,1.325,0,0,0-.049-1.868Z" transform="translate(-50.301 -103.901)"/></g></g></svg>