<svg xmlns="http://www.w3.org/2000/svg" width="66.441" height="42.947" viewBox="0 0 66.441 42.947"><defs><style>.a{fill:#1eb7fa;}</style></defs><g transform="translate(0 -90.526)"><g transform="translate(0 90.526)"><path class="a" d="M65.144,101.663a1.3,1.3,0,0,0,1.3-1.3V91.824a1.3,1.3,0,0,0-1.3-1.3H58.136a2.6,2.6,0,0,0-2.47,1.8H37.406l-.041-.021a18.39,18.39,0,0,0-11.192-1.314L15.691,93.039H10.9a2.6,2.6,0,0,0-2.591-2.513H1.3a1.3,1.3,0,0,0-1.3,1.3v8.343a1.3,1.3,0,0,0,2.6,0V93.121h5.71v24.6H2.6v-6.917a1.3,1.3,0,1,0-2.6,0v8.214a1.3,1.3,0,0,0,1.3,1.3H8.305a2.6,2.6,0,0,0,2.6-2.6v-.014a4.828,4.828,0,0,1,1.651.828l.606.469a4.118,4.118,0,0,0,4.1,3.667c.093,0,.186,0,.278-.011a4.122,4.122,0,0,0,4.091,3.609c.093,0,.186,0,.278-.01a4.127,4.127,0,0,0,4.087,3.612c.094,0,.189,0,.284-.011a4.123,4.123,0,0,0,4.084,3.61q.2,0,.4-.02a4.1,4.1,0,0,0,2.789-1.484l1.055-1.281a4.106,4.106,0,0,0,.7-1.228,4.27,4.27,0,0,0,2.017.5h.063a4.294,4.294,0,0,0,3.955-2.771l.448.435a4.295,4.295,0,0,0,7.085-1.768,4.3,4.3,0,0,0,4.908-6.929l-.9-.879,2.664-1.438v1.112a2.6,2.6,0,0,0,2.6,2.6h7.007a1.3,1.3,0,0,0,1.3-1.3v-8.6a1.3,1.3,0,1,0-2.6,0v7.306h-5.71v-24.6h5.71v7.244A1.3,1.3,0,0,0,65.144,101.663ZM19.494,118.241l-1.055,1.281a1.532,1.532,0,0,1-2.366-1.948l1.055-1.281a1.522,1.522,0,0,1,1.035-.551q.075-.007.15-.007a1.533,1.533,0,0,1,1.18,2.507Zm4.369,3.6-1.055,1.281a1.532,1.532,0,1,1-2.365-1.949l1.055-1.281a1.521,1.521,0,0,1,1.035-.551q.075-.007.15-.007a1.533,1.533,0,0,1,1.18,2.507Zm4.369,3.6-1.055,1.281a1.532,1.532,0,1,1-2.366-1.949l1.055-1.281a1.532,1.532,0,0,1,2.366,1.948Zm4.369,3.6-1.055,1.281a1.532,1.532,0,0,1-2.366-1.949l1.055-1.281a1.522,1.522,0,0,1,1.035-.551q.075-.007.15-.007a1.532,1.532,0,0,1,1.18,2.507ZM52,123.195a1.7,1.7,0,0,1-2.407.035l-4.3-4.181-.015-.013-4.238-4.119a1.3,1.3,0,1,0-1.809,1.861l6.735,6.546a1.7,1.7,0,0,1-2.373,2.442l-6.735-6.546c-.013-.013-.028-.025-.042-.037l-3.236-3.145a1.3,1.3,0,1,0-1.809,1.861l6.735,6.546a1.7,1.7,0,1,1-2.373,2.441l-1.886-1.833a1.3,1.3,0,0,0-.134-.112c-.024-.021-.047-.042-.072-.063a4.113,4.113,0,0,0-2.9-.929,4.116,4.116,0,0,0-4.367-3.6,4.124,4.124,0,0,0-4.371-3.6,4.125,4.125,0,0,0-7.278-2.106l-1.055,1.281q-.133.161-.247.332a7.459,7.459,0,0,0-2.923-1.2V95.634h4.915a1.29,1.29,0,0,0,.249-.024l10.606-2.07a15.856,15.856,0,0,1,5.394-.122,12.462,12.462,0,0,0-3.657,2.514l-9.825,9.721a4.6,4.6,0,0,0,5.5,7.272l10.3-5.817h3.555l14.039,13.678A1.7,1.7,0,0,1,52,123.195Zm3.538-9.532-4.612,2.489-9.28-9.042h.911a1.3,1.3,0,1,0,0-2.6H34.033a1.3,1.3,0,0,0-.638.168L22.8,110.667a2,2,0,0,1-2.394-3.168l9.825-9.721a9.81,9.81,0,0,1,6.942-2.854H55.541Z" transform="translate(0 -90.526)"/></g><g transform="translate(63.846 104.125)"><path class="a" d="M494.215,195.7a1.3,1.3,0,1,0,.38.917A1.3,1.3,0,0,0,494.215,195.7Z" transform="translate(-492 -195.324)"/></g><g transform="translate(0 104.125)"><path class="a" d="M2.215,195.7A1.3,1.3,0,0,0,0,196.622a1.3,1.3,0,0,0,1.3,1.3,1.3,1.3,0,0,0,.917-2.215Z" transform="translate(0 -195.324)"/></g></g></svg>