<svg xmlns="http://www.w3.org/2000/svg" width="57.738" height="57.738" viewBox="0 0 57.738 57.738"><defs><style>.a{fill:#1eb7fa;}</style></defs><g transform="translate(5.15 55.483)"><path class="a" d="M47.595,492.33a1.127,1.127,0,1,0,.33.8A1.136,1.136,0,0,0,47.595,492.33Z" transform="translate(-45.67 -492)"/></g><g transform="translate(40.146 47.513)"><path class="a" d="M357.925,421.66a1.127,1.127,0,1,0,.331.8A1.135,1.135,0,0,0,357.925,421.66Z" transform="translate(-356 -421.33)"/></g><g transform="translate(0 9.247)"><path class="a" d="M54.1,90.979a4.722,4.722,0,0,0,1.382-3.34v-.9a4.736,4.736,0,1,0-9.473,0v.9a4.722,4.722,0,0,0,1.382,3.341,7.01,7.01,0,0,0-3.547,5H38.68a3.382,3.382,0,0,0-3.189,4.511H22.247a3.382,3.382,0,0,0-3.189-4.511H13.893a7.01,7.01,0,0,0-3.547-5,4.722,4.722,0,0,0,1.382-3.341v-.9a4.736,4.736,0,1,0-9.473,0v.9a4.722,4.722,0,0,0,1.382,3.34A7,7,0,0,0,0,97.111V109.76a6.416,6.416,0,0,0,6.409,6.409h8.928v10.77a3.533,3.533,0,0,0,.246,1.3H11.127a1.128,1.128,0,1,0,0,2.255H51.461a1.128,1.128,0,0,0,0-2.255H42.155a3.533,3.533,0,0,0,.246-1.3v-1.3a1.128,1.128,0,1,0-2.255,0v1.3a1.3,1.3,0,1,1-2.594,0V112.7a3.189,3.189,0,0,1,3.186-3.186H55.483v.244a4.158,4.158,0,0,1-4.154,4.154H41.274a1.128,1.128,0,0,0-1.128,1.128v1.8a1.128,1.128,0,1,0,2.255,0v-.677h8.928a6.416,6.416,0,0,0,6.409-6.409V97.111A7,7,0,0,0,54.1,90.979Zm-5.836-4.242a2.481,2.481,0,1,1,4.962,0v.9a2.481,2.481,0,1,1-4.962,0Zm-43.755,0a2.481,2.481,0,1,1,4.962,0v.9a2.481,2.481,0,1,1-4.962,0ZM2.255,97.111a4.736,4.736,0,1,1,9.473,0,1.128,1.128,0,0,0,1.128,1.128h6.2a1.128,1.128,0,0,1,0,2.255H12.491a4.848,4.848,0,0,1-4.28-2.562A1.128,1.128,0,1,0,6.223,99a7.1,7.1,0,0,0,5.568,3.718,1.126,1.126,0,0,0-.063.373v4.172H2.255ZM16.169,107.26H13.983v-4.172a1.125,1.125,0,0,0-.052-.338h2.237a4.494,4.494,0,0,0,0,4.511Zm4.017,19.678a1.3,1.3,0,1,1-2.594,0v-11.9a1.128,1.128,0,0,0-1.128-1.128H6.409a4.158,4.158,0,0,1-4.154-4.154v-.244H17a3.189,3.189,0,0,1,3.186,3.186Zm5.3,1.3H22.2a3.531,3.531,0,0,0,.246-1.3V112.7a5.41,5.41,0,0,0-1.034-3.186h4.079Zm4.511,0H27.741v-18.72H30Zm5.546,0H32.252v-18.72h4.079A5.411,5.411,0,0,0,35.3,112.7v14.237A3.533,3.533,0,0,0,35.543,128.236Zm2.122-20.975H20.073a2.255,2.255,0,1,1,0-4.511H37.665a2.255,2.255,0,1,1,0,4.511Zm6.09-4.172v4.172H41.569a4.494,4.494,0,0,0,0-4.511h2.237A1.125,1.125,0,0,0,43.755,103.088Zm11.728,4.172H46.01v-4.172a1.126,1.126,0,0,0-.063-.373A7.1,7.1,0,0,0,51.515,99a1.128,1.128,0,1,0-1.988-1.065,4.848,4.848,0,0,1-4.28,2.562H38.68a1.128,1.128,0,1,1,0-2.255h6.2a1.128,1.128,0,0,0,1.128-1.128,4.736,4.736,0,1,1,9.473,0Z" transform="translate(0 -82)"/></g><g transform="translate(17.367)"><path class="a" d="M173.622,0H157.383A3.387,3.387,0,0,0,154,3.383V14.435a3.387,3.387,0,0,0,3.383,3.383h3.931l3.391,3.391a1.128,1.128,0,0,0,1.595,0l3.391-3.391h3.931a3.387,3.387,0,0,0,3.383-3.383V3.383A3.387,3.387,0,0,0,173.622,0Zm1.128,14.435a1.129,1.129,0,0,1-1.128,1.128h-4.4a1.128,1.128,0,0,0-.8.33L165.5,18.816l-2.924-2.924a1.128,1.128,0,0,0-.8-.33h-4.4a1.129,1.129,0,0,1-1.128-1.128V3.383a1.129,1.129,0,0,1,1.128-1.128h16.239a1.129,1.129,0,0,1,1.128,1.128Z" transform="translate(-154)"/></g><g transform="translate(22.441 7.349)"><path class="a" d="M200.925,65.5a1.127,1.127,0,1,0,.331.8A1.131,1.131,0,0,0,200.925,65.5Z" transform="translate(-199 -65.17)"/></g><g transform="translate(27.741 7.349)"><path class="a" d="M247.925,65.5a1.127,1.127,0,1,0,.331.8A1.136,1.136,0,0,0,247.925,65.5Z" transform="translate(-246 -65.17)"/></g><g transform="translate(33.042 7.349)"><path class="a" d="M294.925,65.5a1.127,1.127,0,1,0,.331.8A1.131,1.131,0,0,0,294.925,65.5Z" transform="translate(-293 -65.17)"/></g></svg>