<svg xmlns="http://www.w3.org/2000/svg" width="59.405" height="60.396" viewBox="0 0 59.405 60.396"><defs><style>.a{fill:#1eb7fa;}</style></defs><g transform="translate(-4)"><g transform="translate(4 8.911)"><path class="a" d="M59.248,83.961a6.928,6.928,0,1,0-8.523.777,4.949,4.949,0,0,0-2.171,4.093v6.931h-3.96v-4.95a6.937,6.937,0,0,0-6.109-6.877,6.931,6.931,0,1,0-9.564,0,6.937,6.937,0,0,0-6.109,6.877v4.95h-3.96V88.832a4.949,4.949,0,0,0-2.171-4.093,6.934,6.934,0,1,0-8.523-.777A4.946,4.946,0,0,0,4,88.832v14.851a4.96,4.96,0,0,0,3.96,4.85v14.951h1.98V108.634h8.911v13.861a.99.99,0,0,0,.99.99h5.941a.99.99,0,0,0,.99-.99V106.653h5.941V121.5h-3.96v1.98h9.9V121.5h-3.96V106.653h5.941v15.842a.99.99,0,0,0,.99.99h5.941a.99.99,0,0,0,.99-.99V108.634h8.911v14.851h1.98V108.534a4.959,4.959,0,0,0,3.96-4.85V88.832A4.946,4.946,0,0,0,59.248,83.961Zm-9.7-5.031a4.95,4.95,0,1,1,4.95,4.95A4.956,4.956,0,0,1,49.544,78.931Zm-20.792,0a4.95,4.95,0,1,1,4.95,4.95A4.956,4.956,0,0,1,28.752,78.931Zm6.492,6.931L33.7,89.972l-1.542-4.111Zm-10.452,4.95a4.956,4.956,0,0,1,4.95-4.95h.3l2.73,7.278a.99.99,0,0,0,1.854,0l2.729-7.278h.3a4.956,4.956,0,0,1,4.95,4.95v4.95h-3.96a.99.99,0,0,0-.99.99v3.96H29.742v-3.96a.99.99,0,0,0-.99-.99h-3.96ZM7.96,78.931a4.95,4.95,0,1,1,4.95,4.95A4.956,4.956,0,0,1,7.96,78.931ZM24.792,121.5h-3.96V107.643a.99.99,0,0,0-.99-.99H8.95a2.974,2.974,0,0,1-2.97-2.97V88.832a2.974,2.974,0,0,1,2.97-2.97H13.9a2.974,2.974,0,0,1,2.97,2.97v7.921a.99.99,0,0,0,.99.99h9.9v2.97H13.9V91.8h-1.98v9.9a.99.99,0,0,0,.99.99h8.911a2.974,2.974,0,0,1,2.97,2.97Zm15.952-16.832H26.661a4.944,4.944,0,0,0-.881-1.98H41.626A4.944,4.944,0,0,0,40.744,104.673Zm20.681-.99a2.974,2.974,0,0,1-2.97,2.97H47.564a.99.99,0,0,0-.99.99V121.5h-3.96V105.663a2.974,2.974,0,0,1,2.97-2.97h8.911a.99.99,0,0,0,.99-.99V91.8H53.5v8.911H39.643v-2.97h9.9a.99.99,0,0,0,.99-.99V88.832a2.974,2.974,0,0,1,2.97-2.97h4.95a2.974,2.974,0,0,1,2.97,2.97Z" transform="translate(-4 -72)"/></g><g transform="translate(33.246 32.768)"><g transform="translate(0 0)"><rect class="a" width="2" height="1" transform="translate(-0.246 0.398)"/></g></g><g transform="translate(13.901)"><path class="a" d="M98.851,0H84.99A.99.99,0,0,0,84,.99v4.95a.99.99,0,0,0,.99.99h3.96v1.98a.99.99,0,0,0,1.584.792l3.7-2.772h4.621a.99.99,0,0,0,.99-.99V.99A.99.99,0,0,0,98.851,0Zm-.99,4.95H93.9a.99.99,0,0,0-.594.2L90.931,6.931v-.99a.99.99,0,0,0-.99-.99H85.98V1.98H97.861Z" transform="translate(-84)"/></g></g></svg>