<svg xmlns="http://www.w3.org/2000/svg" width="95" height="95.001" viewBox="0 0 95 95.001"><defs><style>.a{fill:#1eb7fa;}</style></defs><g transform="translate(-0.002 0)"><g transform="translate(0.002 0)"><path class="a" d="M290.321,205.848a1.759,1.759,0,0,0,2.364.768c.1-.053,10.443-5.305,15.543-6.916a1.758,1.758,0,0,0-1.061-3.352c-5.372,1.7-15.641,6.916-16.077,7.137A1.758,1.758,0,0,0,290.321,205.848Z" transform="translate(-237.621 -160.293)"/><path class="a" d="M291.889,104.408a1.753,1.753,0,0,0,.8-.191c.1-.053,10.443-5.305,15.543-6.916a1.758,1.758,0,0,0-1.061-3.352c-5.372,1.7-15.641,6.916-16.077,7.137a1.756,1.756,0,0,0,.8,3.322Z" transform="translate(-237.621 -76.662)"/><path class="a" d="M93.419,23.751a1.583,1.583,0,0,0-1.583,1.583v61.75a4.756,4.756,0,0,1-4.75,4.75h-38V88.191a46.66,46.66,0,0,1,14.25-2.69,81.669,81.669,0,0,1,23.251,3.086,1.583,1.583,0,0,0,2.082-1.5V17.417a1.581,1.581,0,0,0-1.24-1.545s-1.241-.277-3.363-.667a1.583,1.583,0,0,0-.573,3.114c.809.149,1.487.28,2.009.385V84.98a89.418,89.418,0,0,0-22.167-2.646,49.742,49.742,0,0,0-15.772,3.034,37.092,37.092,0,0,0-14.312-3.034A106.7,106.7,0,0,0,9.5,85.046v-66.4a104.219,104.219,0,0,1,23.75-2.809,34.329,34.329,0,0,1,12.667,2.609V80.751a1.583,1.583,0,0,0,2.4,1.357c.157-.093,15.844-9.464,29.768-14.1a1.583,1.583,0,0,0,1.083-1.5V1.584A1.586,1.586,0,0,0,77.028.1,168.429,168.429,0,0,0,51.413,12.908a1.583,1.583,0,1,0,1.678,2.685A169.23,169.23,0,0,1,76,3.9V65.367C65.194,69.123,53.909,75.255,49.085,78V17.417A1.585,1.585,0,0,0,48.209,16a36.663,36.663,0,0,0-14.958-3.333A102.762,102.762,0,0,0,7.483,15.9a1.582,1.582,0,0,0-1.148,1.522V87.084a1.583,1.583,0,0,0,1.583,1.583,1.56,1.56,0,0,0,.434-.062,101.71,101.71,0,0,1,24.9-3.1,34.253,34.253,0,0,1,12.667,2.611v3.722h-38a4.756,4.756,0,0,1-4.75-4.75V25.334a1.583,1.583,0,1,0-3.167,0v61.75A7.926,7.926,0,0,0,7.919,95H87.085A7.926,7.926,0,0,0,95,87.084V25.334A1.583,1.583,0,0,0,93.419,23.751Z" transform="translate(-0.002 0)"/><path class="a" d="M290.321,154.648a1.759,1.759,0,0,0,2.364.768c.1-.053,10.443-5.305,15.543-6.916a1.758,1.758,0,0,0-1.061-3.352c-5.372,1.7-15.641,6.916-16.077,7.137A1.758,1.758,0,0,0,290.321,154.648Z" transform="translate(-237.621 -118.477)"/><path class="a" d="M290.321,257.048a1.759,1.759,0,0,0,2.364.768c.1-.053,10.443-5.305,15.543-6.916a1.758,1.758,0,0,0-1.061-3.352c-5.372,1.7-15.641,6.916-16.077,7.137A1.758,1.758,0,0,0,290.321,257.048Z" transform="translate(-237.621 -202.108)"/><path class="a" d="M110.328,154.616c-10.847-2.545-23.174.7-23.692.836a1.757,1.757,0,0,0,.453,3.453,1.787,1.787,0,0,0,.457-.06c.118-.033,11.986-3.155,21.981-.81a1.756,1.756,0,1,0,.8-3.42Z" transform="translate(-70.078 -125.3)"/><path class="a" d="M110.328,205.82c-10.847-2.544-23.174.7-23.692.836a1.757,1.757,0,0,0,.453,3.453,1.786,1.786,0,0,0,.457-.06c.118-.033,11.986-3.155,21.981-.81a1.756,1.756,0,1,0,.8-3.42Z" transform="translate(-70.078 -167.058)"/><path class="a" d="M290.321,308.248a1.759,1.759,0,0,0,2.364.768c.1-.053,10.443-5.305,15.543-6.916a1.758,1.758,0,0,0-1.061-3.352c-5.372,1.7-15.641,6.916-16.077,7.137A1.758,1.758,0,0,0,290.321,308.248Z" transform="translate(-237.621 -243.924)"/><path class="a" d="M110.328,257.018c-10.847-2.544-23.174.7-23.692.836a1.758,1.758,0,0,0,.453,3.455,1.78,1.78,0,0,0,.457-.062c.118-.033,11.986-3.155,21.981-.81a1.756,1.756,0,1,0,.8-3.42Z" transform="translate(-70.078 -208.812)"/><path class="a" d="M110.328,359.416c-10.847-2.545-23.174.7-23.692.836a1.758,1.758,0,0,0,.453,3.455,1.78,1.78,0,0,0,.457-.062c.118-.033,11.986-3.155,21.981-.81a1.756,1.756,0,1,0,.8-3.42Z" transform="translate(-70.078 -292.319)"/><path class="a" d="M110.328,308.215c-10.847-2.545-23.174.7-23.692.836a1.758,1.758,0,0,0,.453,3.455,1.78,1.78,0,0,0,.457-.062c.118-.033,11.986-3.155,21.981-.81a1.756,1.756,0,1,0,.8-3.42Z" transform="translate(-70.078 -250.563)"/></g></g></svg>