<svg xmlns="http://www.w3.org/2000/svg" width="50.775" height="50.849" viewBox="0 0 50.775 50.849"><defs><style>.a{fill:#1eb7fa;}</style></defs><g transform="translate(-0.344 0)"><g transform="translate(0.344 0)"><path class="a" d="M40.494,55.964A5,5,0,0,0,36.867,54.3a5.172,5.172,0,0,0-3.67,1.653l-3.391,3.381c-.279-.15-.558-.29-.826-.429-.386-.193-.751-.376-1.062-.569a36.859,36.859,0,0,1-8.832-8.049,21.745,21.745,0,0,1-2.9-4.572c.88-.8,1.7-1.642,2.49-2.447.3-.3.6-.612.9-.912a4.924,4.924,0,0,0,0-7.427L16.648,32c-.333-.333-.676-.676-1-1.02-.644-.665-1.32-1.352-2.018-2a5.08,5.08,0,0,0-3.6-1.578,5.257,5.257,0,0,0-3.649,1.578l-.021.021L2.717,32.686a7.852,7.852,0,0,0-2.329,4.99A18.813,18.813,0,0,0,1.762,45.64a46.209,46.209,0,0,0,8.21,13.694A50.5,50.5,0,0,0,26.789,72.5a26.2,26.2,0,0,0,9.444,2.79c.225.011.461.021.676.021A8.087,8.087,0,0,0,43.1,72.652c.011-.021.032-.032.043-.054a24.4,24.4,0,0,1,1.878-1.943c.461-.44.934-.9,1.4-1.384a5.354,5.354,0,0,0,1.621-3.713,5.158,5.158,0,0,0-1.653-3.681Zm3.842,11.3c-.011,0-.011.011,0,0-.419.451-.848.859-1.309,1.309a28.221,28.221,0,0,0-2.071,2.146,5.174,5.174,0,0,1-4.035,1.706c-.161,0-.333,0-.494-.011A23.277,23.277,0,0,1,28.056,69.9,47.672,47.672,0,0,1,12.215,57.5,43.57,43.57,0,0,1,4.488,44.631a15.323,15.323,0,0,1-1.2-6.718,4.927,4.927,0,0,1,1.481-3.187l3.66-3.66a2.44,2.44,0,0,1,1.631-.762,2.3,2.3,0,0,1,1.567.751l.032.032c.655.612,1.277,1.245,1.932,1.921.333.343.676.687,1.02,1.041l2.93,2.93a2.048,2.048,0,0,1,0,3.327c-.311.311-.612.622-.923.923-.9.923-1.76,1.782-2.694,2.619-.021.021-.043.032-.054.054a2.189,2.189,0,0,0-.558,2.436l.032.1a23.522,23.522,0,0,0,3.466,5.656l.011.011a39.39,39.39,0,0,0,9.53,8.671,14.653,14.653,0,0,0,1.32.719c.386.193.751.376,1.062.569.043.021.086.054.129.075a2.326,2.326,0,0,0,1.062.268,2.3,2.3,0,0,0,1.631-.741l3.67-3.67a2.428,2.428,0,0,1,1.621-.8,2.186,2.186,0,0,1,1.545.783l.021.021,5.913,5.913A2.122,2.122,0,0,1,44.336,67.265Z" transform="translate(-0.344 -24.465)"/><path class="a" d="M246.136,88.8a13.812,13.812,0,0,1,11.247,11.247,1.44,1.44,0,0,0,1.427,1.2,1.918,1.918,0,0,0,.247-.021,1.45,1.45,0,0,0,1.191-1.674,16.7,16.7,0,0,0-13.608-13.608,1.456,1.456,0,0,0-1.674,1.181A1.433,1.433,0,0,0,246.136,88.8Z" transform="translate(-218.693 -76.704)"/><path class="a" d="M272.867,22.431A27.5,27.5,0,0,0,250.458.022a1.447,1.447,0,1,0-.472,2.855A24.563,24.563,0,0,1,270.012,22.9a1.44,1.44,0,0,0,1.427,1.2,1.916,1.916,0,0,0,.247-.021A1.422,1.422,0,0,0,272.867,22.431Z" transform="translate(-222.114 0)"/></g></g></svg>