<svg xmlns="http://www.w3.org/2000/svg" width="99.828" height="99.828" viewBox="0 0 99.828 99.828"><defs><style>.a{fill:#1eb7fa;}</style></defs><path class="a" d="M99.828,13.31V0H0V13.31H3.328V79.863H1.664a1.664,1.664,0,1,0,0,3.328H48.25v3.328a1.706,1.706,0,0,0,.045.223,6.655,6.655,0,1,0,3.238,0,1.706,1.706,0,0,0,.045-.223V83.19H98.164a1.664,1.664,0,1,0,0-3.328H96.5V13.31ZM53.242,93.173a3.328,3.328,0,1,1-3.328-3.328A3.331,3.331,0,0,1,53.242,93.173ZM3.328,3.328H96.5V9.983H3.328ZM93.173,79.863H6.655V13.31H93.173Z"/><path class="a" d="M36.664,48.319a1.662,1.662,0,0,0,1.664-1.664V41.664a1.664,1.664,0,1,0-3.328,0v4.991A1.662,1.662,0,0,0,36.664,48.319Z" transform="translate(23.233 26.552)"/><path class="a" d="M40.664,36A1.662,1.662,0,0,0,39,37.664V49.31a1.664,1.664,0,1,0,3.328,0V37.664A1.662,1.662,0,0,0,40.664,36Z" transform="translate(25.888 23.897)"/><path class="a" d="M44.664,38A1.662,1.662,0,0,0,43,39.664v8.319a1.664,1.664,0,1,0,3.328,0V39.664A1.662,1.662,0,0,0,44.664,38Z" transform="translate(28.543 25.224)"/><path class="a" d="M48.664,31A1.662,1.662,0,0,0,47,32.664V52.629a1.664,1.664,0,0,0,3.328,0V32.664A1.662,1.662,0,0,0,48.664,31Z" transform="translate(31.199 20.578)"/><path class="a" d="M52.664,35A1.662,1.662,0,0,0,51,36.664v13.31a1.664,1.664,0,1,0,3.328,0V36.664A1.662,1.662,0,0,0,52.664,35Z" transform="translate(33.854 23.233)"/><path class="a" d="M10.664,41.328H27.3A1.664,1.664,0,1,0,27.3,38H10.664a1.664,1.664,0,1,0,0,3.328Z" transform="translate(5.974 25.224)"/><path class="a" d="M35.621,42H10.664a1.664,1.664,0,0,0,0,3.328H35.621a1.664,1.664,0,0,0,0-3.328Z" transform="translate(5.974 27.88)"/><path class="a" d="M27.134,49.267a19.031,19.031,0,0,0,12.525-4.7,1.388,1.388,0,0,0,.146-.1c.027-.027.035-.062.06-.09a19.074,19.074,0,0,0,6.321-12.6l.032-.027.033-.732c.007-.146-.007-.29,0-.436s.02-.3.02-.448c0-.2-.025-.4-.03-.6-.01-.294-.022-.589-.045-.882-.03-.4-.078-.789-.133-1.178-.033-.236-.067-.473-.108-.707-.078-.438-.176-.867-.283-1.294-.048-.191-.093-.384-.148-.574-.126-.441-.273-.873-.429-1.3-.067-.183-.13-.368-.2-.549-.16-.4-.341-.79-.527-1.176-.1-.206-.193-.416-.3-.619-.171-.324-.359-.636-.549-.948-.151-.253-.3-.509-.459-.755-.146-.218-.308-.424-.463-.637-.23-.316-.453-.636-.7-.938,0,0,0,0,0,0-.388-.471-.792-.928-1.226-1.363-.413-.413-.85-.8-1.3-1.166-.025-.022-.048-.045-.075-.067-.283-.233-.582-.441-.877-.656-.236-.173-.468-.353-.712-.516-.216-.143-.439-.268-.661-.4-.349-.213-.7-.423-1.062-.612-.16-.083-.323-.156-.484-.235-.436-.213-.877-.414-1.331-.594-.126-.05-.255-.093-.381-.14-.486-.181-.977-.346-1.479-.487-.131-.037-.263-.068-.4-.1-.484-.125-.973-.235-1.471-.321-.183-.032-.368-.057-.552-.085-.434-.063-.87-.115-1.314-.148-.265-.02-.529-.03-.794-.04-.213-.01-.424-.035-.642-.035-.155,0-.3.02-.458.023s-.285-.01-.426,0l-.657.04-.017.018a19.126,19.126,0,0,0,1.557,38.189Zm11.5-8.324-8.314-8.314H42.724A15.733,15.733,0,0,1,38.632,40.943ZM28.461,14.394c.173.013.346.03.517.05q.567.067,1.12.171c.111.022.223.04.334.063.453.1.9.21,1.338.344l.082.023A15.873,15.873,0,0,1,42.221,25.415c.008.027.015.055.023.082.135.438.248.883.344,1.338.023.111.042.223.063.334q.1.554.171,1.12c.02.171.035.344.05.517s.017.331.025.5H27.966V14.369C28.13,14.379,28.3,14.381,28.461,14.394Zm-3.823.15V30.9l0,.052c0,.008,0,.015,0,.023l.058,1.65h.913l10.5,10.5A15.794,15.794,0,1,1,24.638,14.544Z" transform="translate(5.31 7.302)"/><path class="a" d="M39.664,20.328h13.31a1.664,1.664,0,1,0,0-3.328H39.664a1.664,1.664,0,0,0,0,3.328Z" transform="translate(25.224 11.285)"/><path class="a" d="M51.483,17.474a1.664,1.664,0,1,0,2.363,0A1.739,1.739,0,0,0,51.483,17.474Z" transform="translate(33.854 11.293)"/><path class="a" d="M49.664,15.328h4.991a1.664,1.664,0,1,0,0-3.328H49.664a1.664,1.664,0,0,0,0,3.328Z" transform="translate(31.862 7.966)"/><path class="a" d="M39.664,15.328h3.328a1.664,1.664,0,1,0,0-3.328H39.664a1.664,1.664,0,0,0,0,3.328Z" transform="translate(25.224 7.966)"/><path class="a" d="M45.664,15.319a1.648,1.648,0,0,0,1.664-1.664,1.712,1.712,0,0,0-.483-1.181,1.671,1.671,0,0,0-2.363,2.363A1.746,1.746,0,0,0,45.664,15.319Z" transform="translate(29.207 7.974)"/></svg>