<svg xmlns="http://www.w3.org/2000/svg" width="49.926" height="60.423" viewBox="0 0 49.926 60.423"><defs><style>.a{fill:#1eb7fa;}</style></defs><g transform="translate(3.25)"><path class="a" d="M2.216,60.423h37.9a3.309,3.309,0,0,0,3.362-3.252V52.1a3.336,3.336,0,0,0,3.2-3.244V3.252A3.369,3.369,0,0,0,43.245,0H.181A3.369,3.369,0,0,0-3.25,3.252V55.188c0,.016.028.034.028.051A5.331,5.331,0,0,0,2.216,60.423ZM-1.2,3.252a1.325,1.325,0,0,1,1.383-1.2H43.245a1.325,1.325,0,0,1,1.383,1.2v45.6a1.323,1.323,0,0,1-1.383,1.2H2.216A5.941,5.941,0,0,0-1.2,51.18ZM-1.144,55.2a3.262,3.262,0,0,1,3.36-3.1H41.427v5.069a1.26,1.26,0,0,1-1.314,1.2H2.216a3.258,3.258,0,0,1-3.36-3.136Zm0,0" transform="translate(0)"/><path class="a" d="M77.087,402.048h31.632a1.024,1.024,0,0,0,0-2.048H77.087a1.024,1.024,0,1,0,0,2.048Zm0,0" transform="translate(-71.19 -359.035)"/><path class="a" d="M77.087,339.548h31.632a1.024,1.024,0,1,0,0-2.048H77.087a1.024,1.024,0,1,0,0,2.048Zm0,0" transform="translate(-71.19 -302.936)"/><path class="a" d="M116.572,108.61h23.46a1.024,1.024,0,0,0,0-2.048h-1.873V93.136a1.018,1.018,0,0,0-1-1.041h-3.89a1.016,1.016,0,0,0-1,1.041v13.425h-.64V99.037a1.1,1.1,0,0,0-1.076-1.053h-3.89a1.072,1.072,0,0,0-1.05,1.053v7.524h-.64V95.907a1,1,0,0,0-1.025-1h-3.89a.958.958,0,0,0-.973,1v10.654h-1.537V90.649a1.024,1.024,0,1,0-2.048,0v16.975A1.034,1.034,0,0,0,116.572,108.61Zm17.746-14.466h1.792v12.417h-1.792Zm-6.657,5.889h1.92v6.529h-1.92Zm-6.529-3.072h1.792v9.6h-1.792Zm0,0" transform="translate(-106.589 -80.446)"/></g></svg>