<svg xmlns="http://www.w3.org/2000/svg" width="59.084" height="70.901" viewBox="0 0 59.084 70.901"><defs><style>.a{fill:#1eb7fa;}</style></defs><path class="a" d="M3.545,70.9h44.9a3.545,3.545,0,0,0,3.545-3.545V11.817h4.727a2.363,2.363,0,0,0,2.363-2.363V5.909A5.916,5.916,0,0,0,53.176,0H3.545A3.545,3.545,0,0,0,0,3.545v63.81A3.545,3.545,0,0,0,3.545,70.9ZM53.176,2.363a3.545,3.545,0,0,1,3.545,3.545V9.453H9.453V5.909A5.846,5.846,0,0,0,8.241,2.363ZM2.363,3.545A1.182,1.182,0,0,1,3.545,2.363,3.545,3.545,0,0,1,7.09,5.909V9.453a2.363,2.363,0,0,0,2.363,2.363H49.63V67.356a1.182,1.182,0,0,1-1.181,1.182H3.545a1.182,1.182,0,0,1-1.182-1.182Zm0,0"/><path class="a" d="M53.563,139.817h7.09a2.364,2.364,0,0,0,2.364-2.363v-1.181a1.182,1.182,0,0,0-2.364,0v1.181h-7.09v-7.09h3.545a1.182,1.182,0,0,0,0-2.363H53.563a2.363,2.363,0,0,0-2.363,2.363v7.09A2.363,2.363,0,0,0,53.563,139.817Zm0,0" transform="translate(-44.109 -110.275)"/><path class="a" d="M53.563,259.282h7.09a2.364,2.364,0,0,0,2.364-2.363v-7.09a2.364,2.364,0,0,0-2.364-2.364h-7.09a2.364,2.364,0,0,0-2.363,2.364v7.09A2.363,2.363,0,0,0,53.563,259.282Zm0-9.453h7.09v7.09h-7.09Zm0,0" transform="translate(-44.109 -213.196)"/><path class="a" d="M53.563,378.75h7.09a2.364,2.364,0,0,0,2.364-2.363V369.3a2.364,2.364,0,0,0-2.364-2.363h-7.09A2.363,2.363,0,0,0,51.2,369.3v7.09A2.363,2.363,0,0,0,53.563,378.75Zm0-9.453h7.09v7.09h-7.09Zm0,0" transform="translate(-44.109 -316.121)"/><path class="a" d="M163.315,147.43h5.908a1.182,1.182,0,1,0,0-2.363h-5.908a1.182,1.182,0,1,0,0,2.363Zm0,0" transform="translate(-139.681 -124.978)"/><path class="a" d="M240.115,147.43h11.817a1.182,1.182,0,0,0,0-2.363H240.115a1.182,1.182,0,0,0,0,2.363Zm0,0" transform="translate(-205.846 -124.978)"/><path class="a" d="M163.315,181.563h11.817a1.182,1.182,0,1,0,0-2.363H163.315a1.182,1.182,0,1,0,0,2.363Zm0,0" transform="translate(-139.681 -154.384)"/><path class="a" d="M288.692,179.2h-5.909a1.182,1.182,0,0,0,0,2.363h5.909a1.182,1.182,0,0,0,0-2.363Zm0,0" transform="translate(-242.606 -154.384)"/><path class="a" d="M163.315,266.9h5.908a1.182,1.182,0,1,0,0-2.363h-5.908a1.182,1.182,0,1,0,0,2.363Zm0,0" transform="translate(-139.681 -227.903)"/><path class="a" d="M251.932,264.535H240.115a1.182,1.182,0,0,0,0,2.363h11.817a1.182,1.182,0,0,0,0-2.363Zm0,0" transform="translate(-205.846 -227.903)"/><path class="a" d="M163.315,301.031h11.817a1.182,1.182,0,1,0,0-2.363H163.315a1.182,1.182,0,1,0,0,2.363Zm0,0" transform="translate(-139.681 -257.309)"/><path class="a" d="M288.692,298.668h-5.909a1.182,1.182,0,0,0,0,2.363h5.909a1.182,1.182,0,0,0,0-2.363Zm0,0" transform="translate(-242.606 -257.309)"/><path class="a" d="M163.315,386.363h5.908a1.182,1.182,0,1,0,0-2.363h-5.908a1.182,1.182,0,1,0,0,2.363Zm0,0" transform="translate(-139.681 -330.824)"/><path class="a" d="M251.932,384H240.115a1.182,1.182,0,0,0,0,2.363h11.817a1.182,1.182,0,0,0,0-2.363Zm0,0" transform="translate(-205.846 -330.824)"/><path class="a" d="M163.315,420.5h11.817a1.182,1.182,0,1,0,0-2.363H163.315a1.182,1.182,0,1,0,0,2.363Zm0,0" transform="translate(-139.681 -360.23)"/><path class="a" d="M288.692,418.133h-5.909a1.182,1.182,0,0,0,0,2.363h5.909a1.182,1.182,0,0,0,0-2.363Zm0,0" transform="translate(-242.606 -360.23)"/><path class="a" d="M78.908,117.208a1.182,1.182,0,0,0-1.671,1.671l2.363,2.363a1.183,1.183,0,0,0,.835.346h.1a1.183,1.183,0,0,0,.864-.492l5.908-8.272a1.182,1.182,0,1,0-1.924-1.373l-5.1,7.136Zm0,0" transform="translate(-66.255 -95.591)"/></svg>