<svg xmlns="http://www.w3.org/2000/svg" width="60.795" height="60.795" viewBox="0 0 60.795 60.795"><defs><style>.a{fill:#1eb7fa;}</style></defs><path class="a" d="M43.207,31.378a2.93,2.93,0,0,1,1.632.494l6.848,4.566a4.9,4.9,0,0,0,2.72.824H60.8V35.3H54.408a2.935,2.935,0,0,1-1.633-.494l-2.766-1.844V0H12.747V5.883H0V60.8H37.262V54.912H50.009v-8.25c.062-.015.125-.02.187-.034l4.561-1.14a12.763,12.763,0,0,1,3.1-.382H60.8V43.145H57.854a14.748,14.748,0,0,0-3.571.44l-4.561,1.14a12.823,12.823,0,0,1-7.131-.273L40.938,43.9a14.7,14.7,0,0,0-4.657-.755H27.725A2.946,2.946,0,0,1,30.666,40.2H41.453a2.934,2.934,0,0,0,.344-5.849l.8-2.976ZM41.968,46.311a14.679,14.679,0,0,0,4.657.756c.476,0,.95-.041,1.423-.087v5.971H37.262V49.743a3.537,3.537,0,0,0,.754-1.4l.8-2.974a12.655,12.655,0,0,1,1.5.39Zm-5.114-1.183-.731,2.7a1.62,1.62,0,0,1-1.561,1.2h-.318a1.616,1.616,0,0,1-1.56-2.038l.509-1.885h3.088C36.472,45.106,36.663,45.121,36.854,45.129Zm-5.692-.023-.371,1.372A3.554,3.554,0,0,0,32.475,50.5l-.308,1.23,1.9.476.3-1.218h.188A3.561,3.561,0,0,0,35.3,50.9v7.931H1.961V7.845H14.709V1.961H48.048V31.655l-2.121-1.414a4.895,4.895,0,0,0-2.72-.824h-.076l4.081-15.1a3.579,3.579,0,0,0-3.454-4.512h-.318a3.584,3.584,0,0,0-3.454,2.644L37.262,22.536V5.883H16.67V7.845H35.3V29.417H33.272a4.849,4.849,0,0,0-2.913.981H20.592v1.961H28.3L26.338,34.32H20.592v1.961h3.786L22.739,37.92A3.043,3.043,0,0,0,25.779,43c0,.048-.015.093-.015.142a1.963,1.963,0,0,0,1.961,1.961Zm7.553-6.864H35.049l4.141-15.32,3.364,1.121Zm-7.523-6a2.965,2.965,0,0,1,2.08-.861h1.6l-.8,2.959a4.858,4.858,0,0,0-3.286,1.418L25.68,40.861a1.1,1.1,0,0,1-1.878-.777,1.092,1.092,0,0,1,.323-.778Zm.981,4.9a2.955,2.955,0,0,1,1.345-.755l-.5,1.855H31.073ZM45.319,13.806l-1.2,4.443-3.364-1.121,1.126-4.165a1.621,1.621,0,0,1,1.561-1.2h.318a1.617,1.617,0,0,1,1.56,2.039Zm-5.076,5.218,3.364,1.121-.542,2L39.7,21.025Zm1.21,17.257a.981.981,0,1,1,0,1.961h-.707l.531-1.961Zm0,0"/><path class="a" d="M57.495,80H32v9.806H57.495Zm-1.961,7.845H33.961V81.961H55.534Zm0,0" transform="translate(-28.078 -70.194)"/><path class="a" d="M64,112h1.961v1.961H64Zm0,0" transform="translate(-56.155 -98.272)"/><path class="a" d="M96,112h1.961v1.961H96Zm0,0" transform="translate(-84.233 -98.272)"/><path class="a" d="M128,112h1.961v1.961H128Zm0,0" transform="translate(-112.311 -98.272)"/><path class="a" d="M160,112h1.961v1.961H160Zm0,0" transform="translate(-140.389 -98.272)"/><path class="a" d="M192,112h1.961v1.961H192Zm0,0" transform="translate(-168.466 -98.272)"/><path class="a" d="M43.767,213.883H41.806v3.922H33.961v-7.845h5.883V208H32v11.767H43.767Zm0,0" transform="translate(-28.078 -182.505)"/><path class="a" d="M70.111,178.344,61,187.456l-1.268-1.268-1.387,1.387L61,190.229l10.5-10.5Zm0,0" transform="translate(-51.192 -156.484)"/><path class="a" d="M41.806,353.806H33.961v-7.845h5.883V344H32v11.767H43.767v-5.883H41.806Zm0,0" transform="translate(-28.078 -301.835)"/><path class="a" d="M59.73,322.188l-1.387,1.387L61,326.229l10.5-10.5-1.387-1.387L61,323.456Zm0,0" transform="translate(-51.192 -275.814)"/><path class="a" d="M256,440h1.961v1.961H256Zm0,0" transform="translate(-224.622 -386.069)"/><path class="a" d="M152,440h10.786v1.961H152Zm0,0" transform="translate(-133.369 -386.069)"/><path class="a" d="M168,216h12.747v1.961H168Zm0,0" transform="translate(-147.408 -189.525)"/></svg>