<svg xmlns="http://www.w3.org/2000/svg" width="58.191" height="52.912" viewBox="0 0 58.191 52.912"><defs><style>.a{fill:#1eb7fa;}</style></defs><path class="a" d="M55.035,0H3.156A3.16,3.16,0,0,0,0,3.156V14.584a.861.861,0,1,0,1.722,0V3.156A1.436,1.436,0,0,1,3.156,1.722H55.035A1.436,1.436,0,0,1,56.47,3.156V37.589a1.436,1.436,0,0,1-1.434,1.434H37.213a8.223,8.223,0,0,0,0-2.41H48.378a.861.861,0,0,0,.861-.861,3.964,3.964,0,0,1,3.96-3.96.861.861,0,0,0,.861-.861V16.289a.861.861,0,0,0-1.722,0V30.136a5.7,5.7,0,0,0-4.755,4.755H36.761a8.2,8.2,0,0,0-15.33,0H10.609a5.7,5.7,0,0,0-4.755-4.755V10.609a5.7,5.7,0,0,0,4.755-4.755H47.582a5.7,5.7,0,0,0,4.755,4.755v1.665a.861.861,0,0,0,1.722,0V9.813a.861.861,0,0,0-.861-.861,3.964,3.964,0,0,1-3.96-3.96.861.861,0,0,0-.861-.861H9.813a.861.861,0,0,0-.861.861,3.964,3.964,0,0,1-3.96,3.96.861.861,0,0,0-.861.861V30.932a.861.861,0,0,0,.861.861,3.964,3.964,0,0,1,3.96,3.96.861.861,0,0,0,.861.861H20.978a8.226,8.226,0,0,0,0,2.411H3.156a1.436,1.436,0,0,1-1.434-1.435v-19a.861.861,0,0,0-1.722,0v19a3.16,3.16,0,0,0,3.156,3.156H21.431a8.2,8.2,0,0,0,1.18,2.094v9.212a.861.861,0,0,0,1.186.8l5.3-2.163,5.3,2.163a.861.861,0,0,0,1.186-.8V49.589a.861.861,0,1,0-1.722,0V50.77l-4.438-1.811a.864.864,0,0,0-.651,0L24.332,50.77V44.5a8.18,8.18,0,0,0,9.527,0v1.071a.861.861,0,1,0,1.722,0V42.839a8.2,8.2,0,0,0,1.18-2.094H55.035a3.16,3.16,0,0,0,3.156-3.156V3.156A3.16,3.16,0,0,0,55.035,0ZM29.1,44.3a6.485,6.485,0,1,1,6.485-6.485A6.492,6.492,0,0,1,29.1,44.3Zm0,0"/><path class="a" d="M197.785,86.55a.861.861,0,1,0,0-1.722H182.634a.861.861,0,1,0,0,1.722Zm0,0" transform="translate(-161.114 -75.187)"/><path class="a" d="M158.77,125.223H132.142a.861.861,0,1,0,0,1.722H158.77a.861.861,0,1,0,0-1.722Zm0,0" transform="translate(-116.36 -110.99)"/><path class="a" d="M158.77,165.617H132.142a.861.861,0,1,0,0,1.722H158.77a.861.861,0,1,0,0-1.722Zm0,0" transform="translate(-116.36 -146.794)"/><path class="a" d="M334.208,212.07h-4.132a.861.861,0,0,0,0,1.722h4.132a.861.861,0,0,0,0-1.722Zm0,0" transform="translate(-291.798 -187.967)"/><path class="a" d="M132.142,212.07a.861.861,0,1,0,0,1.722h4.132a.861.861,0,0,0,0-1.722Zm0,0" transform="translate(-116.36 -187.967)"/><path class="a" d="M220.643,292.859a4.534,4.534,0,1,0,4.534,4.534A4.539,4.539,0,0,0,220.643,292.859Zm0,7.346a2.812,2.812,0,1,1,2.812-2.812A2.815,2.815,0,0,1,220.643,300.205Zm0,0" transform="translate(-191.547 -259.574)"/><path class="a" d="M230.25,196.821a2.927,2.927,0,1,0,2.927-2.927A2.93,2.93,0,0,0,230.25,196.821Zm4.132,0a1.205,1.205,0,1,1-1.205-1.205A1.207,1.207,0,0,1,234.382,196.821Zm0,0" transform="translate(-204.081 -171.857)"/></svg>