<svg xmlns="http://www.w3.org/2000/svg" width="120" height="77.566" viewBox="0 0 120 77.566"><defs><style>.a{fill:#fff;}</style></defs><g transform="translate(0 -90.526)"><g transform="translate(0 90.526)"><path class="a" d="M117.656,110.641A2.344,2.344,0,0,0,120,108.3V92.87a2.344,2.344,0,0,0-2.344-2.344H105a4.7,4.7,0,0,0-4.462,3.255H67.558c-.025-.012-.048-.026-.074-.038A33.213,33.213,0,0,0,47.271,91.37L28.339,95.064H19.68A4.69,4.69,0,0,0,15,90.526H2.344A2.344,2.344,0,0,0,0,92.87v15.068a2.344,2.344,0,0,0,4.688,0V95.213H15v44.435H4.688V127.156a2.344,2.344,0,1,0-4.688,0v14.836a2.344,2.344,0,0,0,2.344,2.344H15a4.693,4.693,0,0,0,4.688-4.688v-.026a8.721,8.721,0,0,1,2.981,1.5l1.094.847a7.438,7.438,0,0,0,7.4,6.623c.168,0,.335-.008.5-.019a7.444,7.444,0,0,0,7.388,6.518c.168,0,.335-.008.5-.019a7.453,7.453,0,0,0,7.381,6.523c.17,0,.342-.008.513-.02a7.446,7.446,0,0,0,7.377,6.52q.364,0,.731-.035a7.406,7.406,0,0,0,5.037-2.681l1.906-2.314a7.416,7.416,0,0,0,1.261-2.218,7.712,7.712,0,0,0,3.643.907h.114a7.756,7.756,0,0,0,7.144-5l.809.786a7.757,7.757,0,0,0,12.8-3.194,7.761,7.761,0,0,0,8.864-12.515L95.5,140.236l4.811-2.6v2.009A4.693,4.693,0,0,0,105,144.336h12.656A2.344,2.344,0,0,0,120,141.992V126.453a2.344,2.344,0,1,0-4.687,0v13.2H105V95.213h10.313V108.3A2.344,2.344,0,0,0,117.656,110.641ZM35.209,140.582,33.3,142.9a2.768,2.768,0,0,1-4.272-3.519l1.906-2.314a2.749,2.749,0,0,1,1.87-1q.136-.013.271-.013a2.768,2.768,0,0,1,2.131,4.528Zm7.89,6.5L41.193,149.4a2.768,2.768,0,1,1-4.272-3.519l1.906-2.314a2.748,2.748,0,0,1,1.87-.995q.136-.013.271-.013a2.768,2.768,0,0,1,2.131,4.528Zm7.891,6.5L49.084,155.9a2.768,2.768,0,1,1-4.272-3.519l1.906-2.314a2.768,2.768,0,0,1,4.273,3.519Zm7.89,6.5L56.974,162.4a2.768,2.768,0,0,1-4.272-3.519l1.906-2.314a2.748,2.748,0,0,1,1.87-.995q.136-.013.271-.013a2.768,2.768,0,0,1,2.131,4.528Zm35.042-10.553a3.078,3.078,0,0,1-4.347.062L81.8,142.039l-.027-.024-7.655-7.44a2.344,2.344,0,1,0-3.267,3.361L83.02,149.759a3.074,3.074,0,0,1-4.285,4.41L66.57,142.347c-.024-.024-.051-.044-.076-.067l-5.845-5.68a2.344,2.344,0,1,0-3.267,3.361l12.165,11.822a3.074,3.074,0,1,1-4.285,4.409l-3.407-3.311a2.356,2.356,0,0,0-.241-.2c-.044-.037-.086-.076-.131-.113a7.428,7.428,0,0,0-5.239-1.679,7.435,7.435,0,0,0-7.887-6.5,7.448,7.448,0,0,0-7.894-6.5,7.451,7.451,0,0,0-13.144-3.8L25.412,136.4q-.24.291-.445.6a13.472,13.472,0,0,0-5.28-2.175V99.752h8.878a2.331,2.331,0,0,0,.449-.044l19.155-3.738a28.638,28.638,0,0,1,9.743-.221,22.508,22.508,0,0,0-6.6,4.541L33.561,117.849a8.305,8.305,0,0,0,9.927,13.135l18.6-10.506H68.5l25.355,24.7a3.074,3.074,0,0,1,.062,4.347Zm6.391-17.216-8.33,4.5L75.221,120.477h1.646a2.344,2.344,0,1,0,0-4.687h-15.4a2.341,2.341,0,0,0-1.153.3L41.183,126.9a3.618,3.618,0,0,1-4.324-5.722L54.6,103.623a17.718,17.718,0,0,1,12.538-5.154h33.171Z" transform="translate(0 -90.526)"/></g><g transform="translate(114.41 114.784)"><path class="a" d="M496.771,196.143a2.794,2.794,0,1,0,.819,1.976A2.8,2.8,0,0,0,496.771,196.143Z" transform="translate(-492 -195.324)"/></g><g transform="translate(0 114.784)"><path class="a" d="M4.771,196.143A2.8,2.8,0,0,0,0,198.119a2.8,2.8,0,0,0,2.8,2.8,2.795,2.795,0,0,0,1.976-4.771Z" transform="translate(0 -195.324)"/></g></g></svg>