<svg xmlns="http://www.w3.org/2000/svg" width="116.844" height="89.823" viewBox="0 0 116.844 89.823"><defs><style>.a{fill:#fff;}</style></defs><g transform="translate(0 -59.201)"><g transform="translate(0 59.201)"><g transform="translate(0 0)"><path class="a" d="M116.838,140.641c0-.017,0-.034,0-.051a1.676,1.676,0,0,0-.03-.2c0-.006,0-.013-.005-.019a1.656,1.656,0,0,0-.05-.175c-.005-.015-.011-.03-.017-.045q-.029-.078-.065-.151c0-.009-.007-.018-.011-.026L107.5,121.918v-59.4a3.317,3.317,0,0,0-3.313-3.313H12.652a3.317,3.317,0,0,0-3.313,3.313v59.4L.185,139.973c0,.009-.007.018-.011.026-.024.049-.045.1-.065.151l-.017.045a1.74,1.74,0,0,0-.05.176l0,.018a1.686,1.686,0,0,0-.03.2c0,.017,0,.034,0,.051,0,.036-.005.071-.005.107v4.342a3.94,3.94,0,0,0,3.935,3.935H112.909a3.94,3.94,0,0,0,3.935-3.935v-4.342C116.844,140.711,116.841,140.676,116.838,140.641ZM12.762,62.625h91.319v57.99H12.762Zm-.66,61.413h92.64l7.6,15h-37.6l-1.888-6.844a3.232,3.232,0,0,0-3.107-2.366H47.1a3.232,3.232,0,0,0-3.107,2.366L42.1,139.035H4.5Zm59.088,15H45.654l1.6-5.787H69.594Zm42.231,6.053a.513.513,0,0,1-.512.512H3.935a.513.513,0,0,1-.512-.512v-2.63h110Z" transform="translate(0 -59.201)"/></g></g><g transform="translate(16.414 94.472)"><path class="a" d="M154.228,213.756a1.711,1.711,0,0,0-1.712,1.712v17.357H75.346V215.468a1.712,1.712,0,1,0-3.423,0v18.1a2.687,2.687,0,0,0,2.684,2.684h78.649a2.687,2.687,0,0,0,2.684-2.684v-18.1A1.712,1.712,0,0,0,154.228,213.756Z" transform="translate(-71.923 -213.756)"/></g><g transform="translate(16.414 66.276)"><g transform="translate(0 0)"><path class="a" d="M153.256,90.2H74.607a2.687,2.687,0,0,0-2.684,2.684v18.1a1.712,1.712,0,1,0,3.423,0V93.626h77.17v17.357a1.712,1.712,0,0,0,3.423,0v-18.1A2.687,2.687,0,0,0,153.256,90.2Z" transform="translate(-71.923 -90.203)"/></g></g></g></svg>