<svg xmlns="http://www.w3.org/2000/svg" width="100.792" height="100.775" viewBox="0 0 100.792 100.775"><defs><style>.a{fill:#fff;}</style></defs><g transform="translate(0 -0.043)"><g transform="translate(0 0.043)"><path class="a" d="M90.083,10.735A36.563,36.563,0,0,0,36.607,60.544L32.253,64.9,27.815,60.46a2.593,2.593,0,0,0-3.667,0L3.357,81.251a11.462,11.462,0,1,0,16.209,16.21L40.357,76.67a2.593,2.593,0,0,0,0-3.667l-4.438-4.438,4.356-4.356A36.562,36.562,0,0,0,90.083,10.735ZM15.9,93.793a6.276,6.276,0,1,1-8.875-8.875l11.6-11.6L27.5,82.192ZM31.169,78.524l-8.875-8.875,3.688-3.688,8.875,8.875ZM86.416,58.775a31.376,31.376,0,1,1,9.19-22.186A31.411,31.411,0,0,1,86.416,58.775Z" transform="translate(0 -0.043)"/></g><g transform="translate(38.917 11.276)"><path class="a" d="M240.909,64.509a25.312,25.312,0,1,0,0,35.814h0A25.353,25.353,0,0,0,240.909,64.509Zm-3.667,32.147a20.129,20.129,0,1,1,0-28.479A20.161,20.161,0,0,1,237.242,96.655Z" transform="translate(-197.69 -57.103)"/></g><g transform="translate(53.814 22.939)"><path class="a" d="M293.434,120.345a13.671,13.671,0,0,0-19.312,0,2.593,2.593,0,0,0,3.667,3.667,8.479,8.479,0,0,1,11.977,0,2.593,2.593,0,0,0,3.667-3.667Z" transform="translate(-273.363 -116.352)"/></g></g></svg>