<svg xmlns="http://www.w3.org/2000/svg" width="71" height="43.117" viewBox="0 0 71 43.117"><defs><style>.a{fill:#1eb7fa;stroke:#1eb7fa;}</style></defs><path class="a" d="M69.387,15.279,35.423.092a1.032,1.032,0,0,0-.845,0L20.807,6.25a1.036,1.036,0,0,0,.846,1.891L35,2.172,47.218,7.635v7.627A42.459,42.459,0,0,0,35.029,12.7h-.058a42.782,42.782,0,0,0-13.617,3.11,35.3,35.3,0,0,0-7.681,4.272,1.035,1.035,0,0,0-.361.493l-9.74-4.356,13.655-6.106a1.035,1.035,0,0,0-.845-1.891L.613,15.279a1.036,1.036,0,0,0,0,1.891l12.642,5.653v4.959a1.036,1.036,0,0,0,2.071,0V21.446a33.5,33.5,0,0,1,6.812-3.714A41.644,41.644,0,0,1,35,14.776a41.43,41.43,0,0,1,12.218,2.7v10.29a3.658,3.658,0,0,0-.36,6.89l-.724,1.906A38.694,38.694,0,0,0,35,39.9c-6.144-3.228-16.433-4.14-19.674-4.354v-2.9a1.036,1.036,0,0,0-2.071,0v3.883a1.036,1.036,0,0,0,.99,1.034c.135.006,13.593.634,20.243,4.421a1.035,1.035,0,0,0,1.025,0,33.178,33.178,0,0,1,9.762-3.155l-.612,1.612a1.035,1.035,0,0,0,.968,1.4h5.247a1.036,1.036,0,0,0,.968-1.4l-.936-2.464c2.818-.323,4.823-.413,4.845-.414a1.036,1.036,0,0,0,.991-1.034V32.637a1.036,1.036,0,1,0-2.071,0v2.906c-.967.065-2.573.194-4.524.429l-.5-1.318a3.658,3.658,0,0,0-.36-6.89V18.353a32.8,32.8,0,0,1,5.385,3.093v6.336a1.036,1.036,0,1,0,2.071,0V22.823L69.387,17.17a1.035,1.035,0,0,0,0-1.891ZM47.132,39.765l1.122-2.953,1.122,2.953Zm2.71-8.491a1.587,1.587,0,1,1-1.588-1.588A1.589,1.589,0,0,1,49.842,31.274ZM56.687,20.58a1.035,1.035,0,0,0-.361-.493,34.984,34.984,0,0,0-7.037-4V8.561l17.138,7.663Zm0,0" transform="translate(0.5 0.504)"/></svg>