<svg xmlns="http://www.w3.org/2000/svg" width="52.684" height="52.684" viewBox="0 0 52.684 52.684"><defs><style>.a{fill:#1eb7fa;}</style></defs><g transform="translate(-0.002)"><g transform="translate(0.002 0)"><path class="a" d="M290.229,201.236a.912.912,0,0,0,1.226.4,78.109,78.109,0,0,1,8.061-3.587.912.912,0,0,0-.55-1.738,78.145,78.145,0,0,0-8.338,3.7A.912.912,0,0,0,290.229,201.236Z" transform="translate(-260.529 -176.155)"/><path class="a" d="M291.043,99.334a.909.909,0,0,0,.413-.1,78.106,78.106,0,0,1,8.061-3.587.912.912,0,0,0-.55-1.738,78.143,78.143,0,0,0-8.338,3.7.911.911,0,0,0,.414,1.723Z" transform="translate(-260.529 -84.249)"/><path class="a" d="M51.807,13.171a.878.878,0,0,0-.878.878V48.294A2.637,2.637,0,0,1,48.3,50.928H27.222v-2.02a25.876,25.876,0,0,1,7.9-1.492,45.29,45.29,0,0,1,12.894,1.711.878.878,0,0,0,1.155-.833V9.659a.877.877,0,0,0-.688-.857s-.688-.154-1.865-.37a.878.878,0,0,0-.318,1.727c.449.083.825.155,1.114.213V47.127a49.588,49.588,0,0,0-12.293-1.467,27.585,27.585,0,0,0-8.746,1.682,20.57,20.57,0,0,0-7.937-1.682,59.17,59.17,0,0,0-13.171,1.5V10.339A57.8,57.8,0,0,1,18.441,8.781a19.038,19.038,0,0,1,7.025,1.447V44.781a.878.878,0,0,0,1.33.752A100.526,100.526,0,0,1,43.3,37.712a.878.878,0,0,0,.6-.833v-36A.879.879,0,0,0,42.718.056a93.4,93.4,0,0,0-14.205,7.1.878.878,0,1,0,.931,1.489A93.849,93.849,0,0,1,42.149,2.162V36.25a98.4,98.4,0,0,0-14.927,7.006V9.659a.879.879,0,0,0-.486-.786,20.332,20.332,0,0,0-8.295-1.848,56.988,56.988,0,0,0-14.29,1.79.878.878,0,0,0-.637.844V48.294a.878.878,0,0,0,.878.878.865.865,0,0,0,.241-.034,56.4,56.4,0,0,1,13.808-1.722,19,19,0,0,1,7.024,1.448v2.064H4.392a2.637,2.637,0,0,1-2.634-2.634V14.049a.878.878,0,0,0-1.756,0V48.294a4.4,4.4,0,0,0,4.39,4.39H48.3a4.4,4.4,0,0,0,4.39-4.39V14.049A.878.878,0,0,0,51.807,13.171Z" transform="translate(-0.002 0)"/><path class="a" d="M290.229,150.036a.912.912,0,0,0,1.226.4,78.112,78.112,0,0,1,8.061-3.587.912.912,0,0,0-.55-1.738,78.151,78.151,0,0,0-8.338,3.7A.912.912,0,0,0,290.229,150.036Z" transform="translate(-260.529 -130.202)"/><path class="a" d="M290.229,252.436a.912.912,0,0,0,1.226.4,78.113,78.113,0,0,1,8.061-3.587.912.912,0,0,0-.55-1.738,78.147,78.147,0,0,0-8.338,3.7A.912.912,0,0,0,290.229,252.436Z" transform="translate(-260.529 -222.109)"/><path class="a" d="M98.3,154.149c-5.626-1.32-12.019.362-12.288.434a.911.911,0,0,0,.235,1.791.926.926,0,0,0,.237-.031c.061-.017,6.216-1.636,11.4-.42a.911.911,0,1,0,.415-1.774Z" transform="translate(-76.663 -137.866)"/><path class="a" d="M98.3,205.352c-5.626-1.319-12.019.362-12.288.434a.911.911,0,0,0,.235,1.791.927.927,0,0,0,.237-.031c.061-.017,6.216-1.636,11.4-.42a.911.911,0,1,0,.415-1.774Z" transform="translate(-76.663 -183.812)"/><path class="a" d="M290.229,303.636a.912.912,0,0,0,1.226.4,78.112,78.112,0,0,1,8.061-3.587.912.912,0,0,0-.55-1.738,78.142,78.142,0,0,0-8.338,3.7A.912.912,0,0,0,290.229,303.636Z" transform="translate(-260.529 -268.063)"/><path class="a" d="M98.3,256.551c-5.626-1.319-12.019.361-12.288.434a.912.912,0,0,0,.235,1.792.922.922,0,0,0,.237-.032c.061-.017,6.216-1.636,11.4-.42a.911.911,0,1,0,.415-1.774Z" transform="translate(-76.663 -229.752)"/><path class="a" d="M98.3,358.949c-5.626-1.32-12.019.362-12.288.434a.912.912,0,0,0,.235,1.792.922.922,0,0,0,.237-.032c.061-.017,6.216-1.636,11.4-.42a.911.911,0,1,0,.415-1.774Z" transform="translate(-76.663 -321.634)"/><path class="a" d="M98.3,307.747c-5.626-1.32-12.019.361-12.288.434a.912.912,0,0,0,.235,1.792.924.924,0,0,0,.237-.032c.061-.017,6.216-1.636,11.4-.42a.911.911,0,1,0,.415-1.774Z" transform="translate(-76.663 -275.691)"/></g></g></svg>