<svg xmlns="http://www.w3.org/2000/svg" width="45.105" height="53.198" viewBox="0 0 45.105 53.198"><defs><style>.a{fill:#1eb7fa;}</style></defs><g transform="translate(-38.937)"><g transform="translate(38.937)"><path class="a" d="M72.6,0H42.054a3.121,3.121,0,0,0-3.117,3.117v10.6a1.039,1.039,0,0,0,2.078,0V3.117a1.04,1.04,0,0,1,1.039-1.039H72.6A1.04,1.04,0,0,1,73.64,3.117V41.769A1.04,1.04,0,0,1,72.6,42.808H42.054a1.04,1.04,0,0,1-1.039-1.039V22.477a1.039,1.039,0,1,0-2.078,0V41.769a3.121,3.121,0,0,0,3.117,3.117H72.6a3.121,3.121,0,0,0,3.117-3.117V3.117A3.121,3.121,0,0,0,72.6,0Z" transform="translate(-38.937)"/></g><g transform="translate(38.937 17.329)"><path class="a" d="M40.711,167.083a1.039,1.039,0,1,0,.3.735A1.045,1.045,0,0,0,40.711,167.083Z" transform="translate(-38.937 -166.78)"/></g><g transform="translate(43.099 46.97)"><path class="a" d="M80.77,452.364a1.038,1.038,0,1,0,.3.735A1.045,1.045,0,0,0,80.77,452.364Z" transform="translate(-78.996 -452.06)"/></g><g transform="translate(47.256 4.163)"><path class="a" d="M150.586,40.063a1.039,1.039,0,0,0-1.039,1.039v40.73a1.04,1.04,0,0,1-1.039,1.039H120.039a1.039,1.039,0,1,0,0,2.078h28.469a3.121,3.121,0,0,0,3.117-3.117V41.1A1.039,1.039,0,0,0,150.586,40.063Z" transform="translate(-119 -40.063)"/></g><g transform="translate(47.262 8.312)"><path class="a" d="M154.805,80a1.039,1.039,0,0,0-1.039,1.039v40.73a1.04,1.04,0,0,1-1.039,1.039H120.1a1.039,1.039,0,0,0,0,2.078h32.625a3.121,3.121,0,0,0,3.117-3.117V81.039A1.039,1.039,0,0,0,154.805,80Z" transform="translate(-119.063 -80)"/></g><g transform="translate(44.756 7.689)"><path class="a" d="M105.951,74H95.976a1.039,1.039,0,0,0-1.039,1.039v9.975a1.039,1.039,0,0,0,1.039,1.039h9.975a1.039,1.039,0,0,0,1.039-1.039V75.039A1.039,1.039,0,0,0,105.951,74Zm-1.039,9.975h-7.9v-7.9h7.9Z" transform="translate(-94.937 -74)"/></g><g transform="translate(45.136 24.154)"><path class="a" d="M105.893,232.778a1.039,1.039,0,0,0-1.469,0l-2.762,2.762-1.284-1.284a1.039,1.039,0,1,0-1.469,1.469l2.019,2.019a1.039,1.039,0,0,0,1.469,0l3.5-3.5A1.039,1.039,0,0,0,105.893,232.778Z" transform="translate(-98.603 -232.474)"/></g><g transform="translate(56.289 25.872)"><path class="a" d="M219.1,249H206.976a1.039,1.039,0,1,0,0,2.078H219.1a1.039,1.039,0,0,0,0-2.078Z" transform="translate(-205.937 -249)"/></g><g transform="translate(60.549 7.689)"><path class="a" d="M255.249,74h-7.273a1.039,1.039,0,1,0,0,2.078h7.273a1.039,1.039,0,1,0,0-2.078Z" transform="translate(-246.937 -74)"/></g><g transform="translate(60.549 12.676)"><path class="a" d="M255.249,122h-7.273a1.039,1.039,0,1,0,0,2.078h7.273a1.039,1.039,0,1,0,0-2.078Z" transform="translate(-246.937 -122)"/></g><g transform="translate(60.549 17.663)"><path class="a" d="M255.249,170h-7.273a1.039,1.039,0,1,0,0,2.078h7.273a1.039,1.039,0,1,0,0-2.078Z" transform="translate(-246.937 -170)"/></g><g transform="translate(45.136 32.089)"><path class="a" d="M105.893,309.145a1.039,1.039,0,0,0-1.469,0l-2.762,2.762-1.284-1.284a1.039,1.039,0,0,0-1.469,1.469l2.019,2.019a1.039,1.039,0,0,0,1.469,0l3.5-3.5A1.039,1.039,0,0,0,105.893,309.145Z" transform="translate(-98.603 -308.841)"/></g><g transform="translate(56.289 33.768)"><path class="a" d="M219.1,325H206.976a1.039,1.039,0,1,0,0,2.078H219.1a1.039,1.039,0,0,0,0-2.078Z" transform="translate(-205.937 -325)"/></g></g></svg>