<svg xmlns="http://www.w3.org/2000/svg" width="43.902" height="53.575" viewBox="0 0 43.902 53.575"><defs><style>.a{fill:#1eb7fa;}</style></defs><g transform="translate(-38.937)"><g transform="translate(38.937)"><path class="a" d="M79.118,0H42.658a3.725,3.725,0,0,0-3.721,3.721V16.37a1.24,1.24,0,0,0,2.48,0V3.721a1.242,1.242,0,0,1,1.24-1.24H79.118a1.242,1.242,0,0,1,1.24,1.24V49.855a1.242,1.242,0,0,1-1.24,1.24H42.658a1.242,1.242,0,0,1-1.24-1.24V26.829a1.24,1.24,0,1,0-2.48,0V49.855a3.725,3.725,0,0,0,3.721,3.721H79.118a3.725,3.725,0,0,0,3.721-3.721V3.721A3.725,3.725,0,0,0,79.118,0Z" transform="translate(-38.937)"/></g><g transform="translate(38.937 20.684)"><path class="a" d="M41.054,167.142a1.241,1.241,0,1,0,.363.877A1.248,1.248,0,0,0,41.054,167.142Z" transform="translate(-38.937 -166.78)"/></g><g transform="translate(45.882 9.177)"><path class="a" d="M108.083,74H96.177a1.24,1.24,0,0,0-1.24,1.24V87.146a1.24,1.24,0,0,0,1.24,1.24h11.906a1.24,1.24,0,0,0,1.24-1.24V75.24A1.24,1.24,0,0,0,108.083,74Zm-1.24,11.906H97.417V76.48h9.425Z" transform="translate(-94.937 -74)"/></g><g transform="translate(46.337 28.831)"><path class="a" d="M107.3,232.837a1.24,1.24,0,0,0-1.754,0l-3.3,3.3L100.72,234.6a1.24,1.24,0,0,0-1.754,1.754l2.41,2.41a1.24,1.24,0,0,0,1.754,0l4.174-4.174A1.24,1.24,0,0,0,107.3,232.837Z" transform="translate(-98.603 -232.474)"/></g><g transform="translate(59.648 30.88)"><path class="a" d="M221.646,249H207.177a1.24,1.24,0,0,0,0,2.48h14.469a1.24,1.24,0,0,0,0-2.48Z" transform="translate(-205.937 -249)"/></g><g transform="translate(64.733 9.177)"><path class="a" d="M256.858,74h-8.681a1.24,1.24,0,1,0,0,2.48h8.681a1.24,1.24,0,1,0,0-2.48Z" transform="translate(-246.937 -74)"/></g><g transform="translate(64.733 15.13)"><path class="a" d="M256.858,122h-8.681a1.24,1.24,0,1,0,0,2.48h8.681a1.24,1.24,0,1,0,0-2.48Z" transform="translate(-246.937 -122)"/></g><g transform="translate(64.733 21.083)"><path class="a" d="M256.858,170h-8.681a1.24,1.24,0,1,0,0,2.48h8.681a1.24,1.24,0,1,0,0-2.48Z" transform="translate(-246.937 -170)"/></g><g transform="translate(46.337 38.301)"><path class="a" d="M107.3,309.2a1.24,1.24,0,0,0-1.754,0l-3.3,3.3-1.533-1.533a1.24,1.24,0,0,0-1.754,1.754l2.41,2.41a1.24,1.24,0,0,0,1.754,0l4.174-4.174A1.24,1.24,0,0,0,107.3,309.2Z" transform="translate(-98.603 -308.841)"/></g><g transform="translate(59.648 40.306)"><path class="a" d="M221.646,325H207.177a1.24,1.24,0,0,0,0,2.48h14.469a1.24,1.24,0,0,0,0-2.48Z" transform="translate(-205.937 -325)"/></g></g></svg>