<svg xmlns="http://www.w3.org/2000/svg" width="70.563" height="70.562" viewBox="0 0 70.563 70.562"><defs><style>.a{fill:#1eb7fa;}</style></defs><path class="a" d="M85.393,76.955l2.041-2.041-1.609-1.609-2.041,2.041L81.636,73.2a21.493,21.493,0,0,0,2.717-10.469c0-.324-.034-.64-.049-.961A11.839,11.839,0,0,0,93.457,50.21H91.181a9.575,9.575,0,0,1-7.1,9.274A21.638,21.638,0,0,0,62.729,41.1c-.324,0-.64.034-.961.049A11.839,11.839,0,0,0,50.21,32v2.276a9.575,9.575,0,0,1,9.274,7.1A21.638,21.638,0,0,0,41.1,62.729c0,.324.034.64.049.961A11.839,11.839,0,0,0,32,75.248h2.276a9.575,9.575,0,0,1,7.1-9.274A21.578,21.578,0,0,0,73.2,81.636l2.148,2.148L73.3,85.824l1.609,1.609,2.041-2.041,10.87,10.87a5.967,5.967,0,0,0,8.439-8.438ZM62.729,43.381A19.36,19.36,0,0,1,81.847,59.906L79.6,60.28A17.081,17.081,0,0,0,62.729,45.657c-.058,0-.115.008-.173.009l-.376-2.257C62.365,43.4,62.543,43.381,62.729,43.381Zm0,4.552a14.8,14.8,0,1,1-14.8,14.8A14.812,14.812,0,0,1,62.729,47.933Zm-19.348,14.8A19.36,19.36,0,0,1,59.906,43.611l.373,2.243A17.08,17.08,0,0,0,45.657,62.729c0,.058.008.115.009.173l-2.257.376C43.4,63.093,43.381,62.914,43.381,62.729ZM62.729,82.076A19.36,19.36,0,0,1,43.611,65.551l2.243-.373A17.061,17.061,0,0,0,79.8,62.729c0-.058-.008-.115-.009-.173l2.257-.376c.006.184.028.363.028.549A19.369,19.369,0,0,1,62.729,82.076Zm12.439-1.689a21.773,21.773,0,0,0,5.219-5.219l1.787,1.787-5.219,5.219ZM92.044,95.734a3.667,3.667,0,0,1-2.61-1.08l-10.87-10.87,5.219-5.219,10.87,10.87a3.691,3.691,0,0,1-2.61,6.3Z" transform="translate(-27.448 -27.448)"/><path class="a" d="M362.243,20.486A10.243,10.243,0,1,0,352,10.243,10.254,10.254,0,0,0,362.243,20.486Zm3.414-3.056a7.866,7.866,0,0,1-6.829,0v-1.5a3.414,3.414,0,1,1,6.829,0Zm-5.69-9.463a2.276,2.276,0,1,1,2.276,2.276A2.278,2.278,0,0,1,359.967,7.967Zm2.276-5.691a7.959,7.959,0,0,1,5.679,13.543,5.687,5.687,0,0,0-2.5-4.6,4.552,4.552,0,1,0-6.36,0,5.683,5.683,0,0,0-2.5,4.6,7.959,7.959,0,0,1,5.679-13.543Z" transform="translate(-301.924)"/><path class="a" d="M10.243,20.486A10.243,10.243,0,1,0,0,10.243,10.254,10.254,0,0,0,10.243,20.486Zm3.414-3.056a7.866,7.866,0,0,1-6.829,0v-1.5a3.414,3.414,0,1,1,6.829,0ZM7.967,7.967a2.276,2.276,0,1,1,2.276,2.276A2.278,2.278,0,0,1,7.967,7.967Zm2.276-5.691A7.959,7.959,0,0,1,15.922,15.82a5.687,5.687,0,0,0-2.5-4.6,4.552,4.552,0,1,0-6.36,0,5.689,5.689,0,0,0-2.5,4.6A7.959,7.959,0,0,1,10.243,2.276Z"/><path class="a" d="M10.243,352a10.243,10.243,0,1,0,10.243,10.243A10.254,10.254,0,0,0,10.243,352Zm3.414,17.43a7.866,7.866,0,0,1-6.829,0v-1.5a3.414,3.414,0,1,1,6.829,0Zm-5.691-9.463a2.276,2.276,0,1,1,2.276,2.276A2.278,2.278,0,0,1,7.967,359.967Zm7.955,7.853a5.687,5.687,0,0,0-2.5-4.6,4.552,4.552,0,1,0-6.36,0,5.689,5.689,0,0,0-2.5,4.6,7.967,7.967,0,1,1,11.358,0Z" transform="translate(0 -301.924)"/><path class="a" d="M160,177.1v7.967h25.038V172.552H178.21V182.8h-2.276V168H169.1v14.8h-2.276V177.1Zm20.486-2.276h2.276V182.8h-2.276Zm-9.1-4.552h2.276V182.8h-2.276ZM164.552,182.8h-2.276v-3.414h2.276Z" transform="translate(-137.238 -144.1)"/></svg>