<svg xmlns="http://www.w3.org/2000/svg" width="75" height="75" viewBox="0 0 75 75"><defs><style>.a{fill:#1eb7fa;}</style></defs><path class="a" d="M305.924,166.026A6.224,6.224,0,1,0,299.7,159.8,6.231,6.231,0,0,0,305.924,166.026Zm0-9.959a3.736,3.736,0,1,1-3.736,3.736A3.74,3.74,0,0,1,305.924,156.066Z" transform="translate(-252.235 -129.255)"/><path class="a" d="M309.563,243.614a10.281,10.281,0,0,0-4.844,1.213,1.244,1.244,0,0,0,1.176,2.193,7.784,7.784,0,0,1,11.35,5.62h-7.682a1.244,1.244,0,0,0,0,2.488h9.026a1.244,1.244,0,0,0,1.244-1.244A10.282,10.282,0,0,0,309.563,243.614Z" transform="translate(-256.029 -205.006)"/><path class="a" d="M81.255,252.638H73.463a7.784,7.784,0,0,1,11.35-5.62,1.244,1.244,0,0,0,1.176-2.193,10.271,10.271,0,0,0-15.113,9.057,1.244,1.244,0,0,0,1.244,1.244h9.136a1.244,1.244,0,1,0,0-2.488Z" transform="translate(-59.679 -205.004)"/><path class="a" d="M101.487,166.026a6.224,6.224,0,1,0-6.224-6.224A6.231,6.231,0,0,0,101.487,166.026Zm0-9.959a3.736,3.736,0,1,1-3.736,3.736A3.74,3.74,0,0,1,101.487,156.066Z" transform="translate(-80.176 -129.255)"/><path class="a" d="M194.708,150.741a8.014,8.014,0,1,0-8.014-8.014A8.023,8.023,0,0,0,194.708,150.741Zm0-13.539a5.525,5.525,0,1,1-5.525,5.525A5.531,5.531,0,0,1,194.708,137.2Z" transform="translate(-157.208 -113.437)"/><path class="a" d="M167.053,246.326a13.529,13.529,0,0,0-13.514,13.513,1.244,1.244,0,0,0,1.244,1.244h24.539a1.244,1.244,0,0,0,1.244-1.244,13.529,13.529,0,0,0-13.513-13.513ZM156.1,258.6a11.026,11.026,0,0,1,21.911,0Z" transform="translate(-129.553 -207.382)"/><path class="a" d="M73.8,36.3H70.9A33.462,33.462,0,0,0,38.7,4.1V1.2a1.2,1.2,0,0,0-2.394,0V4.1A33.462,33.462,0,0,0,4.1,36.3H1.2a1.2,1.2,0,1,0,0,2.394H4.1A33.462,33.462,0,0,0,36.3,70.9V73.8a1.2,1.2,0,0,0,2.394,0V70.9A33.462,33.462,0,0,0,70.9,38.7H73.8a1.2,1.2,0,1,0,0-2.394ZM38.7,68.5V65.645a1.2,1.2,0,0,0-2.394,0V68.5A31.065,31.065,0,0,1,6.5,38.7H9.355a1.2,1.2,0,1,0,0-2.394H6.5A31.065,31.065,0,0,1,36.3,6.5V9.355a1.2,1.2,0,0,0,2.394,0V6.5A31.065,31.065,0,0,1,68.5,36.3H65.645a1.2,1.2,0,1,0,0,2.394H68.5A31.065,31.065,0,0,1,38.7,68.5Z"/></svg>