<svg xmlns="http://www.w3.org/2000/svg" width="110" height="108.334" viewBox="0 0 110 108.334"><defs><style>.a{fill:#fff;}</style></defs><g transform="translate(-0.002 -0.5)"><path class="a" d="M107.4,226.734a9.737,9.737,0,0,0-6.146-2.7,8.58,8.58,0,0,0-6.759,2.7l-12.231,12.68a8.523,8.523,0,0,0-.827-1.237,7.779,7.779,0,0,0-6.2-2.9H58.122a33.62,33.62,0,0,1-9.361-1.3,22.24,22.24,0,0,0-21.485,4.763,32.217,32.217,0,0,0-5.6,6.292L18.61,241.9a2.132,2.132,0,0,0-1.514-.644h-.014a2.14,2.14,0,0,0-1.552.7L.606,258.189A2.346,2.346,0,0,0,.673,261.4l25.242,25.181a2.094,2.094,0,0,0,3.042-.059l14.785-15.892a2.357,2.357,0,0,0-.043-3.226L42.411,266.1l2.947-.347a44.727,44.727,0,0,1,5.39-.327H76.8a18.877,18.877,0,0,0,10.687-2.883l.071-.049a14.684,14.684,0,0,0,2.76-2.625l17.555-21.638C110.875,234.528,110.687,229.907,107.4,226.734ZM27.35,281.757,5.233,259.693l11.915-12.959,21.988,22.355Zm77.223-46.463L87.018,256.932a10.3,10.3,0,0,1-1.9,1.814,14.843,14.843,0,0,1-8.32,2.146H50.746a48.793,48.793,0,0,0-5.881.357l-6.477.761L24.827,248.222a27.879,27.879,0,0,1,5.186-5.977,17.989,17.989,0,0,1,17.595-3.906,37.758,37.758,0,0,0,10.515,1.467H75.244c3.075,0,3.9,2.791,3.9,4.439a5.061,5.061,0,0,1-1.013,3.146,3.6,3.6,0,0,1-2.951,1.3h-14.9a2.27,2.27,0,0,0,0,4.534h14.9a7.869,7.869,0,0,0,6.249-2.9,9.578,9.578,0,0,0,2.039-5.777l14.087-14.6a4.9,4.9,0,0,1,6.919.12C105.378,230.947,106.6,232.794,104.573,235.294Zm0,0" transform="translate(0 -178.376)"/><path class="a" d="M233.713,334.971a2.267,2.267,0,1,0-4.414,1.035l.021.092a2.268,2.268,0,0,0,2.205,1.75,2.293,2.293,0,0,0,.52-.06,2.267,2.267,0,0,0,1.69-2.725Zm0,0" transform="translate(-180.083 -261.383)"/><path class="a" d="M48.861,48.331h20.8a4.941,4.941,0,0,0,3.034-1.05,4.941,4.941,0,0,0,3.034,1.05H96.54a4.941,4.941,0,0,0,3.034-1.05,4.941,4.941,0,0,0,3.034,1.05h20.8a5.342,5.342,0,0,0,5.169-5.489v-10.3a11.992,11.992,0,0,0-6.089-10.628,13.513,13.513,0,0,0,2.834-8.335C125.327,6.366,119.8.5,113.011.5s-12.316,5.866-12.316,13.077a13.511,13.511,0,0,0,2.834,8.335,11.4,11.4,0,0,0-3.954,3.6,11.378,11.378,0,0,0-3.955-3.6,13.511,13.511,0,0,0,2.834-8.335C98.453,6.366,92.928.5,86.137.5S73.821,6.366,73.821,13.577a13.516,13.516,0,0,0,2.835,8.336,11.378,11.378,0,0,0-3.955,3.6,11.389,11.389,0,0,0-3.955-3.6,13.51,13.51,0,0,0,2.834-8.334C71.579,6.366,66.054.5,59.263.5S46.947,6.366,46.947,13.578a13.515,13.515,0,0,0,2.834,8.335,11.993,11.993,0,0,0-6.09,10.628v10.3A5.343,5.343,0,0,0,48.861,48.331Zm64.15-43.3a8.315,8.315,0,0,1,8.046,8.543,8.06,8.06,0,1,1-16.091,0A8.314,8.314,0,0,1,113.012,5.034Zm-5.547,20.213a11.637,11.637,0,0,0,11.093,0,7.257,7.257,0,0,1,5.755,7.293v10.3a.929.929,0,0,1-.9.955h-20.8a.929.929,0,0,1-.9-.955v-10.3A7.257,7.257,0,0,1,107.464,25.247ZM86.138,5.034a8.315,8.315,0,0,1,8.046,8.543,8.06,8.06,0,1,1-16.091,0A8.314,8.314,0,0,1,86.138,5.034ZM80.591,25.247a11.637,11.637,0,0,0,11.093,0,7.258,7.258,0,0,1,5.755,7.293v10.3a.929.929,0,0,1-.9.955h-20.8a.929.929,0,0,1-.9-.955v-10.3A7.258,7.258,0,0,1,80.591,25.247ZM59.264,5.034a8.315,8.315,0,0,1,8.046,8.543,8.06,8.06,0,1,1-16.091,0A8.315,8.315,0,0,1,59.264,5.034Zm-11.3,27.507a7.258,7.258,0,0,1,5.755-7.293,11.637,11.637,0,0,0,11.093,0,7.257,7.257,0,0,1,5.755,7.293v10.3a.929.929,0,0,1-.9.955h-20.8a.929.929,0,0,1-.9-.955Zm0,0" transform="translate(-33.856)"/></g></svg>