<svg xmlns="http://www.w3.org/2000/svg" width="61.771" height="38.075" viewBox="0 0 61.771 38.075"><defs><style>.a{fill:#1eb7fa;}</style></defs><g transform="translate(-11.197 -21.277)"><path class="a" d="M307.008,168.195a7.308,7.308,0,1,0-7.308-7.308A7.317,7.317,0,0,0,307.008,168.195Zm0-11.695a4.386,4.386,0,1,1-4.386,4.386A4.392,4.392,0,0,1,307.008,156.5Z" transform="translate(-245.916 -128.724)"/><path class="a" d="M310.521,243.614a12.073,12.073,0,0,0-5.688,1.425,1.461,1.461,0,0,0,1.381,2.575,9.14,9.14,0,0,1,13.328,6.6h-9.021a1.461,1.461,0,0,0,0,2.922h10.6a1.461,1.461,0,0,0,1.461-1.461A12.073,12.073,0,0,0,310.521,243.614Z" transform="translate(-249.611 -201.986)"/><path class="a" d="M83.064,254.211H73.913a9.14,9.14,0,0,1,13.327-6.6,1.461,1.461,0,0,0,1.381-2.575,12.061,12.061,0,0,0-17.746,10.635,1.461,1.461,0,0,0,1.461,1.461H83.064a1.461,1.461,0,1,0,0-2.922Z" transform="translate(-59.679 -201.985)"/><path class="a" d="M102.572,168.195a7.308,7.308,0,1,0-7.309-7.308A7.317,7.317,0,0,0,102.572,168.195Zm0-11.695a4.386,4.386,0,1,1-4.387,4.386A4.392,4.392,0,0,1,102.572,156.5Z" transform="translate(-79.498 -128.724)"/><path class="a" d="M196.1,153.534a9.41,9.41,0,1,0-9.41-9.41A9.42,9.42,0,0,0,196.1,153.534Zm0-15.9a6.488,6.488,0,1,1-6.488,6.488A6.5,6.5,0,0,1,196.1,137.636Z" transform="translate(-154.021 -113.437)"/><path class="a" d="M169.407,246.326a15.886,15.886,0,0,0-15.868,15.868A1.461,1.461,0,0,0,155,263.655h28.814a1.461,1.461,0,0,0,1.461-1.461A15.886,15.886,0,0,0,169.407,246.326Zm-12.864,14.407a12.947,12.947,0,0,1,25.728,0Z" transform="translate(-127.324 -204.304)"/></g></svg>