<svg xmlns="http://www.w3.org/2000/svg" width="63.434" height="63.434" viewBox="0 0 63.434 63.434"><defs><style>.a{fill:#1eb7fa;}</style></defs><path class="a" d="M50.133,5.906V0H13.3V5.906a31.91,31.91,0,0,0-4.9,4.325H3.069a3.069,3.069,0,0,0,0,6.139h.9A31.716,31.716,0,1,0,50.133,5.906Zm11.254,25.81a29.61,29.61,0,0,1-1.023,7.713V37.1A4.112,4.112,0,0,0,57.4,33.166l-4.194-1.2v-1.3A5.1,5.1,0,0,0,55.249,26.6V24.556a5.122,5.122,0,0,0-5.116-5.116V8.457A29.686,29.686,0,0,1,61.387,31.717ZM56.272,46.041H57.69q-.659,1.189-1.418,2.312ZM4.716,43.994c-.306-.67-.594-1.35-.851-2.046h55.7c-.257.7-.546,1.376-.851,2.046Zm2.445,4.358q-.761-1.12-1.418-2.312H7.162Zm0-34.029V12.277H9.208v2.046Zm4.092-2.046H28.337L29.872,13.3l-1.535,1.023H11.254Zm25.578,3.069h7.091a8.193,8.193,0,0,1-7.091,7.091Zm0-2.046V6.209A8.193,8.193,0,0,1,43.924,13.3Zm-2.046,7.188a5.036,5.036,0,0,0-5.027-.657,8.153,8.153,0,0,1-1.868-3.462h1.066l4.6-3.069-4.6-3.069h-.222A8.186,8.186,0,0,1,34.786,6.22Zm15.347,1A3.073,3.073,0,0,1,53.2,24.555V26.6a3.069,3.069,0,1,1-6.139,0V24.555A3.073,3.073,0,0,1,50.133,21.486Zm0,10.231a5.12,5.12,0,0,0,1.023-.1v.7l-1.023,1.023L49.11,32.316v-.7A5.12,5.12,0,0,0,50.133,31.717Zm-2.344,2.172,2.344,2.344,2.344-2.344,4.356,1.245A2.055,2.055,0,0,1,58.318,37.1v2.8H56.272V37.856H54.225V39.9H46.041V37.856H43.994V39.9H41.948V37.1a2.055,2.055,0,0,1,1.484-1.968ZM39.9,39.9H37.856V37.856H35.809V39.9H27.624V37.856H25.578V39.9H23.532V37.1a2.055,2.055,0,0,1,1.484-1.968l4.357-1.245,2.344,2.344,2.344-2.344,4.356,1.245A2.055,2.055,0,0,1,39.9,37.1ZM32.74,32.316l-1.023,1.023-1.023-1.023v-.7a5.113,5.113,0,0,0,2.046,0Zm-1.023-2.646A3.073,3.073,0,0,1,28.647,26.6V24.555a3.069,3.069,0,1,1,6.139,0V26.6A3.073,3.073,0,0,1,31.717,29.671Zm-5.933-13.3a10.147,10.147,0,0,0,.655,2.046h-7v2.046h8.185v-.007c.138.183.285.36.436.534a5.1,5.1,0,0,0-1.025,1.519h-7.6v2.046H26.6V26.6a5.092,5.092,0,0,0,2.046,4.066v1.3l-4.194,1.2a4.067,4.067,0,0,0-1.945,1.254,4.067,4.067,0,0,0-1.945-1.254l-4.194-1.2v-1.3A5.1,5.1,0,0,0,18.416,26.6V24.556a5.119,5.119,0,0,0-3.069-4.682v-3.5ZM16.37,24.555V26.6a3.069,3.069,0,1,1-6.139,0V24.555a3.069,3.069,0,1,1,6.139,0ZM13.3,31.717a5.12,5.12,0,0,0,1.023-.1v.7L13.3,33.339l-1.023-1.023v-.7A5.12,5.12,0,0,0,13.3,31.717Zm-2.344,2.172L13.3,36.233l2.344-2.344L20,35.134A2.055,2.055,0,0,1,21.486,37.1v2.8H19.439V37.856H17.393V39.9H9.208V37.856H7.162V39.9H5.116V37.1A2.055,2.055,0,0,1,6.6,35.134ZM48.087,2.046V19.873a5.119,5.119,0,0,0-3.069,4.682V26.6a5.092,5.092,0,0,0,2.046,4.066v1.3l-4.194,1.2a4.067,4.067,0,0,0-1.945,1.254,4.067,4.067,0,0,0-1.945-1.254l-4.194-1.2v-1.3A5.1,5.1,0,0,0,36.832,26.6V24.556c0-.017,0-.034,0-.051a10.232,10.232,0,1,0-10.4-14.274H15.347V2.046ZM13.3,8.459v1.772H11.272C11.922,9.612,12.6,9.018,13.3,8.459ZM2.046,13.3a1.025,1.025,0,0,1,1.023-1.023H5.116v2.046H3.069A1.025,1.025,0,0,1,2.046,13.3ZM6.335,16.37H13.3v3.069a5.122,5.122,0,0,0-5.116,5.116V26.6a5.092,5.092,0,0,0,2.046,4.066v1.3l-4.194,1.2A4.112,4.112,0,0,0,3.069,37.1V39.43A29.6,29.6,0,0,1,6.335,16.37ZM31.717,61.387A29.605,29.605,0,0,1,9.208,51.015v-.882H46.041V48.087H9.208V46.041H54.225v2.046H48.087v2.046h6.139v.882A29.605,29.605,0,0,1,31.717,61.387Zm0,0"/><path class="a" d="M136,32h2.046v2.046H136Zm0,0" transform="translate(-118.607 -27.908)"/><path class="a" d="M168,32h2.046v2.046H168Zm0,0" transform="translate(-146.514 -27.908)"/><path class="a" d="M200,32h2.046v2.046H200Zm0,0" transform="translate(-174.422 -27.908)"/></svg>